<svg width="1674" height="445" viewBox="0 0 1674 445" fill="none" xmlns="http://www.w3.org/2000/svg">
<g clip-path="url(#clip0_68_318)">
<path d="M255.154 270.627H66.6606V286.118H255.154V270.627Z" fill="#05515F"/>
<path d="M204.25 247.773V188.81H188.644V154.74H180.436V133.912H174.524V114.567H169.125V96.8595H165.632L161.423 54.7734L157.721 96.8595H153.446V114.567H148.046V133.912H142.134V154.74H133.92V188.81H118.32V247.773H103.753V263.996H143.449V181.276H147.737V263.996H158.438V154.516H164.054V263.996H174.754V181.276H179.042V263.996H218.811V247.773H204.244H204.25Z" fill="#05515F"/>
<path d="M224.704 294.478H96.3479V294.497C85.0229 294.939 75.98 303.958 75.98 315.022C75.98 326.087 85.4898 335.574 97.216 335.574C102.878 335.574 108.021 333.423 111.829 329.926V410.958C122.128 413.577 132.901 414.969 143.989 414.969H156.833V403.377C146.495 402.229 138.123 396.852 133.703 388.46C130.98 383.288 129.54 377.33 129.54 371.234V361.186C129.54 358.896 131.395 357.036 133.677 357.036C135.959 357.036 137.814 358.896 137.814 361.186V371.234C137.814 375.991 138.925 380.609 141.023 384.594C144.555 391.31 152.013 395.315 160.97 395.315C169.927 395.315 177.392 391.304 180.924 384.594C183.021 380.603 184.133 375.984 184.133 371.234V361.186C184.133 358.896 185.988 357.036 188.27 357.036C190.552 357.036 192.406 358.896 192.406 361.186V371.234C192.406 377.33 190.966 383.288 188.243 388.46C183.83 396.852 175.452 402.236 165.107 403.377V414.969H178.609C189.23 414.969 199.562 413.69 209.473 411.281V329.313C213.333 333.172 218.733 335.581 224.724 335.581C236.45 335.581 245.96 326.377 245.96 315.029C245.96 303.681 236.45 294.478 224.724 294.478H224.704ZM179.24 349.04H170.322C169.033 349.04 167.981 350.095 167.981 351.388V351.553C167.981 352.84 169.033 353.902 170.322 353.902H179.24V357.498H170.322C169.033 357.498 167.981 358.553 167.981 359.847V360.005C167.981 361.298 169.033 362.354 170.322 362.354H179.24V365.943H170.322C169.033 365.943 167.981 366.998 167.981 368.291V368.45C167.981 369.743 169.033 370.799 170.322 370.799H179.24V371.366C179.24 381.454 171.013 389.707 160.957 389.707C155.932 389.707 151.362 387.642 148.047 384.324C144.732 380.998 142.68 376.413 142.68 371.373V370.805H151.598C152.881 370.805 153.94 369.749 153.94 368.456V368.298C153.94 367.005 152.887 365.949 151.598 365.949H142.68V362.36H151.598C152.881 362.36 153.94 361.305 153.94 360.011V359.853C153.94 358.56 152.887 357.504 151.598 357.504H142.68V353.909H151.598C152.881 353.909 153.94 352.853 153.94 351.56V351.395C153.94 350.108 152.887 349.046 151.598 349.046H142.68V345.451H151.598C152.881 345.451 153.94 344.395 153.94 343.102V342.943C153.94 341.65 152.887 340.595 151.598 340.595H142.693C143.003 330.771 151.098 322.827 160.963 322.827C165.896 322.827 170.381 324.813 173.676 328.026C176.971 331.239 179.075 335.686 179.227 340.595H170.329C169.04 340.595 167.987 341.65 167.987 342.943V343.102C167.987 344.395 169.04 345.451 170.329 345.451H179.246V349.046L179.24 349.04ZM231.827 319.001C229.814 320.122 227.473 317.774 226.802 316.593C226.131 315.418 226.355 313.571 221.889 313.571H98.6563C94.0789 313.571 94.0197 316.929 93.4673 318.334C92.9083 319.74 90.2842 319.628 90.2842 319.628C88.8307 309.382 94.8615 308.596 98.7681 308.596H225.125C232.826 308.596 231.827 319.007 231.827 319.007V319.001Z" fill="#05515F"/>
<path d="M162.956 444.018H159.615C138.162 444.018 117.308 439.769 97.6303 431.377C78.6435 423.282 61.5706 411.71 46.8849 396.984C32.1993 382.252 20.6638 365.124 12.6009 346.077C4.23536 326.344 0 305.423 0 283.895V160.124C0 138.602 4.23536 117.681 12.6009 97.9413C20.6704 78.8941 32.2058 61.7667 46.8849 47.0343C61.5706 32.3018 78.6435 20.7297 97.6303 12.641C117.301 4.24885 138.162 0 159.615 0H162.956C184.409 0 205.264 4.24885 224.941 12.641C243.928 20.7362 261.001 32.3084 275.686 47.0343C290.372 61.7667 301.908 78.8941 309.971 97.9413C318.329 117.681 322.571 138.602 322.571 160.124V283.895C322.571 305.416 318.336 326.337 309.971 346.077C301.901 365.124 290.366 382.252 275.686 396.984C261.001 411.716 243.928 423.289 224.941 431.377C205.264 439.763 184.409 444.018 162.956 444.018ZM159.615 8.29978C139.28 8.29978 119.511 12.3309 100.866 20.2744C82.8592 27.9474 66.6675 38.9258 52.7381 52.8995C38.8088 66.8732 27.8653 83.1165 20.2166 101.181C12.2918 119.885 8.28 139.717 8.28 160.117V283.888C8.28 304.288 12.2983 324.12 20.2166 342.824C27.8653 360.889 38.8088 377.132 52.7381 391.106C66.6675 405.079 82.8592 416.058 100.866 423.731C119.511 431.681 139.28 435.705 159.615 435.705H162.956C183.291 435.705 203.061 431.674 221.705 423.731C239.712 416.058 255.904 405.079 269.833 391.106C283.763 377.132 294.706 360.889 302.355 342.824C310.28 324.12 314.291 304.288 314.291 283.888V160.117C314.291 139.717 310.273 119.885 302.355 101.181C294.706 83.1165 283.763 66.8732 269.833 52.8995C255.904 38.9258 239.712 27.9474 221.705 20.2744C203.061 12.3243 183.291 8.29978 162.956 8.29978H159.615Z" fill="#05515F"/>
<path d="M224.704 294.477H96.3479V294.497C85.0229 294.939 75.98 303.958 75.98 315.022C75.98 326.086 85.4898 335.574 97.216 335.574C102.878 335.574 108.021 333.423 111.829 329.926V418.354C126.061 422.998 141.168 425.638 156.827 425.915V403.371C146.488 402.223 138.116 396.846 133.697 388.454C130.974 383.281 129.534 377.323 129.534 371.227V361.179C129.534 358.89 131.388 357.029 133.67 357.029C135.952 357.029 137.807 358.89 137.807 361.179V371.227C137.807 375.984 138.918 380.602 141.016 384.587C144.548 391.304 152.006 395.308 160.963 395.308C169.921 395.308 177.385 391.297 180.917 384.587C183.015 380.596 184.126 375.977 184.126 371.227V361.179C184.126 358.89 185.981 357.029 188.263 357.029C190.545 357.029 192.4 358.89 192.4 361.179V371.227C192.4 377.323 190.959 383.281 188.237 388.454C183.824 396.846 175.445 402.229 165.1 403.371V425.921C180.516 425.71 195.412 423.216 209.46 418.769V329.306C213.32 333.166 218.719 335.574 224.711 335.574C236.437 335.574 245.947 326.37 245.947 315.022C245.947 303.674 236.437 294.471 224.711 294.471L224.704 294.477ZM179.24 349.039H170.322C169.033 349.039 167.981 350.095 167.981 351.388V351.553C167.981 352.84 169.033 353.902 170.322 353.902H179.24V357.498H170.322C169.033 357.498 167.981 358.553 167.981 359.846V360.005C167.981 361.298 169.033 362.353 170.322 362.353H179.24V365.942H170.322C169.033 365.942 167.981 366.998 167.981 368.291V368.45C167.981 369.743 169.033 370.798 170.322 370.798H179.24V371.366C179.24 381.453 171.013 389.707 160.957 389.707C155.932 389.707 151.361 387.642 148.047 384.323C144.732 380.998 142.68 376.413 142.68 371.372V370.805H151.598C152.881 370.805 153.94 369.749 153.94 368.456V368.298C153.94 367.005 152.887 365.949 151.598 365.949H142.68V362.36H151.598C152.881 362.36 153.94 361.304 153.94 360.011V359.853C153.94 358.56 152.887 357.504 151.598 357.504H142.68V353.908H151.598C152.881 353.908 153.94 352.853 153.94 351.56V351.395C153.94 350.108 152.887 349.046 151.598 349.046H142.68V345.45H151.598C152.881 345.45 153.94 344.395 153.94 343.102V342.943C153.94 341.65 152.887 340.595 151.598 340.595H142.693C143.003 330.771 151.098 322.827 160.963 322.827C165.896 322.827 170.381 324.813 173.676 328.026C176.971 331.239 179.075 335.686 179.227 340.595H170.329C169.04 340.595 167.987 341.65 167.987 342.943V343.102C167.987 344.395 169.04 345.45 170.329 345.45H179.246V349.046L179.24 349.039ZM231.827 319.001C229.814 320.122 227.473 317.773 226.802 316.592C226.131 315.418 226.355 313.571 221.889 313.571H98.6563C94.0789 313.571 94.0197 316.929 93.4673 318.334C92.9083 319.74 90.2842 319.627 90.2842 319.627C88.8307 309.381 94.8615 308.596 98.7681 308.596H225.125C232.826 308.596 231.827 319.007 231.827 319.007V319.001Z" fill="#05515F"/>
<path d="M385.641 117.781C385.641 101.749 385.641 98.7467 385.332 95.4413C385.128 92.545 383.99 90.6844 381.721 90.2688C380.998 90.0643 379.966 89.9587 378.63 89.8531C377.394 89.8531 376.671 89.4375 376.671 88.7183C376.671 88.0982 377.184 87.7881 378.94 87.7881C383.063 87.7881 393.165 88.0982 393.994 88.0982C394.921 88.0982 407.088 87.7881 410.797 87.7881C412.553 87.7881 413.066 88.2037 413.066 88.8239C413.066 89.6486 412.138 89.8597 411.106 89.8597C410.073 89.9653 409.455 89.9653 408.114 90.1698C405.43 90.6844 404.404 92.0303 404.194 95.758C403.885 99.07 403.885 101.755 403.885 117.787V135.99C403.885 144.158 403.99 153.777 404.398 158.125C404.602 160.817 405.22 162.677 408.317 163.403C409.659 163.713 411.514 163.819 412.855 163.918C414.611 163.918 415.019 164.333 415.019 164.954C415.019 165.468 414.506 165.989 412.855 165.989C405.845 165.989 394.816 165.679 393.882 165.679C393.369 165.679 382.544 165.989 379.038 165.989C377.388 165.989 376.565 165.785 376.565 164.954C376.565 164.228 377.387 163.918 378.63 163.918C379.663 163.812 380.689 163.713 381.827 163.502C383.99 163.192 384.714 160.916 385.023 157.914C385.437 153.573 385.641 146.124 385.641 135.99V117.787V117.781Z" fill="white"/>
<path d="M429.56 91.1987C429.665 88.0978 430.073 86.2373 431.316 86.2373C432.138 86.2373 432.657 86.5474 435.334 88.718C439.662 92.3401 445.028 97.5126 468.638 119.232C479.154 128.957 486.27 135.884 489.052 138.365L488.434 99.5776C488.23 93.7849 487.711 91.0997 483.587 90.374C482.147 90.0639 480.496 89.9583 479.049 89.8594C477.707 89.8594 477.194 89.3448 477.194 88.8236C477.194 88.0978 478.122 87.7877 479.26 87.7877C483.383 87.7877 490.085 88.0978 494.208 88.0978C496.477 88.0978 501.633 87.7877 505.961 87.7877C507.506 87.7877 508.23 88.0978 508.23 88.718C508.23 89.2326 507.717 89.8528 506.474 89.8528C505.132 89.9583 504.619 89.9583 503.896 90.1629C500.496 90.5785 499.463 92.3335 499.154 98.7463C498.332 119.535 498.332 140.219 497.917 161.008C497.917 166.286 497.194 167.421 495.852 167.421C494.202 167.421 491.005 164.94 484.304 159.042C477.293 152.833 468.217 144.666 462.035 138.978C456.261 133.7 445.949 123.982 438.425 116.639L439.458 151.91C439.662 159.358 440.076 162.149 442.963 163.185C444.509 163.7 446.363 163.7 448.428 163.911C449.974 164.016 450.487 164.326 450.487 164.947C450.487 165.771 449.665 165.982 448.014 165.982C444.403 165.982 441.108 165.778 434.716 165.672C432.342 165.672 424.713 165.982 420.694 165.982C419.248 165.982 418.426 165.778 418.426 164.947C418.426 164.326 418.939 163.911 420.385 163.911C421.313 163.805 422.654 163.805 423.786 163.601C427.804 162.981 428.323 160.394 428.633 150.775C429.145 129.471 428.942 104.539 429.56 91.1987Z" fill="white"/>
<path d="M542.251 136.089C542.251 146.533 541.942 153.982 543.698 156.152C545.138 158.118 547.098 158.633 555.654 158.633C561.323 158.633 564.625 158.527 567.512 156.977C569.985 155.842 571.741 153.15 572.872 148.288C573.181 147.153 573.385 146.322 574.214 146.322C574.937 146.322 575.036 146.836 575.036 148.288C575.036 150.67 573.904 160.493 572.872 163.489C572.05 166.18 571.221 166.279 567.098 166.279C552.872 166.279 543.284 165.659 532.353 165.659C527.506 165.659 521.942 165.969 516.267 165.969C514.826 165.969 513.998 165.765 513.998 164.835C513.998 164.214 514.616 163.904 516.056 163.904C517.293 163.799 518.43 163.7 519.562 163.489C523.271 162.868 523.376 161.008 523.685 152.735C523.889 148.598 523.994 142.39 523.994 135.977V117.774C523.994 100.917 523.889 99.0499 523.685 95.7445C523.481 92.8482 522.758 91.0932 520.18 90.3675C519.253 90.0574 517.707 89.9519 516.162 89.8529C515.03 89.8529 513.998 89.6484 513.998 88.8171C513.998 87.9858 515.03 87.7812 517.089 87.7812C522.968 87.7812 528.328 88.0913 532.347 88.0913C533.274 88.0913 546.059 87.7812 549.768 87.7812C551.623 87.7812 552.241 88.0913 552.241 88.7115C552.241 89.6418 551.208 89.8463 549.768 89.8463C548.736 89.9519 547.703 89.9519 546.263 90.2619C543.481 90.7766 542.757 92.7426 542.554 96.3647C542.35 99.6767 542.245 101.742 542.245 118.81V136.082L542.251 136.089Z" fill="white"/>
<path d="M594.115 144.567C593.602 144.567 593.391 144.771 593.187 145.292L589.991 153.77C588.958 156.462 588.34 159.147 588.34 160.388C588.34 162.354 589.268 163.284 591.431 163.488C592.562 163.693 594.213 163.799 595.042 163.904C596.587 163.904 596.897 164.419 596.897 164.94C596.897 165.765 596.074 165.976 594.733 165.976C590.096 165.976 586.591 165.666 581.126 165.666C579.995 165.666 573.188 165.976 568.032 165.976C566.591 165.976 565.973 165.56 565.973 164.94C565.973 164.115 566.697 163.904 567.933 163.904C569.169 163.799 570.202 163.7 571.234 163.488C574.845 162.763 576.904 159.556 579.067 154.595L606.597 92.1222C608.557 87.6754 609.688 86.125 610.826 86.125C611.858 86.125 612.786 87.5699 614.535 91.2975C617.218 97.0902 634.535 136.702 641.545 152.424C645.051 160.493 647.32 162.974 650.93 163.488C652.061 163.799 653.304 163.799 654.232 163.904C655.573 163.904 656.192 164.32 656.192 164.94C656.192 165.666 655.468 165.976 653.508 165.976C643.407 165.976 631.648 165.771 625.051 165.666C623.4 165.666 622.782 165.356 622.782 164.735C622.782 164.115 623.295 163.7 624.223 163.495C625.354 163.291 625.768 162.565 625.459 161.635L618.553 145.187C618.448 144.771 618.04 144.567 617.731 144.567H594.121H594.115ZM614.732 136.293C615.351 136.293 615.351 135.983 615.245 135.779L606.17 113.644C605.861 112.918 605.657 113.129 605.446 113.644L596.68 135.779C596.574 136.089 596.785 136.293 597.094 136.293H614.726H614.732Z" fill="white"/>
<path d="M658.756 91.1987C658.861 88.0978 659.269 86.2373 660.512 86.2373C661.334 86.2373 661.853 86.5474 664.53 88.718C668.858 92.3401 674.224 97.5126 697.834 119.232C708.35 128.957 715.466 135.884 718.248 138.365L717.63 99.5776C717.426 93.7849 716.907 91.0997 712.783 90.374C711.343 90.0639 709.692 89.9583 708.245 89.8594C706.904 89.8594 706.39 89.3448 706.39 88.8236C706.39 88.0978 707.318 87.7877 708.456 87.7877C712.579 87.7877 719.281 88.0978 723.404 88.0978C725.673 88.0978 730.829 87.7877 735.157 87.7877C736.702 87.7877 737.426 88.0978 737.426 88.718C737.426 89.2326 736.913 89.8528 735.67 89.8528C734.328 89.9583 733.815 89.9583 733.092 90.1629C729.692 90.5785 728.659 92.3335 728.35 98.7463C727.528 119.535 727.528 140.219 727.114 161.008C727.114 166.286 726.39 167.421 725.048 167.421C723.398 167.421 720.201 164.94 713.5 159.042C706.489 152.833 697.413 144.666 691.231 138.978C685.457 133.7 675.145 123.982 667.621 116.639L668.654 151.91C668.858 159.358 669.272 162.149 672.159 163.185C673.705 163.7 675.559 163.7 677.624 163.911C679.17 164.016 679.683 164.326 679.683 164.947C679.683 165.771 678.861 165.982 677.21 165.982C673.599 165.982 670.304 165.778 663.912 165.672C661.538 165.672 653.909 165.982 649.891 165.982C648.444 165.982 647.622 165.778 647.622 164.947C647.622 164.326 648.135 163.911 649.581 163.911C650.509 163.805 651.85 163.805 652.982 163.601C657 162.981 657.519 160.394 657.829 150.775C658.342 129.471 658.138 104.539 658.756 91.1987Z" fill="white"/>
<path d="M753.197 117.781C753.197 102.58 753.196 99.6836 752.993 96.3716C752.789 93.3697 752.269 90.5789 748.356 90.1632C747.534 90.0577 746.501 90.0577 744.542 89.8531C742.996 89.7476 742.582 89.233 742.582 88.7183C742.582 88.0982 743.2 87.7881 744.956 87.7881C747.534 87.7881 757.018 88.0982 761.555 88.0982C764.956 88.0982 769.599 87.9926 778.26 87.8936C795.892 87.9992 809.703 90.2754 819.088 99.8947C824.349 105.173 828.986 113.855 828.986 126.166C828.986 138.477 823.521 148.921 817.648 154.503C812.597 159.676 803.113 166.814 782.384 166.814C778.26 166.814 774.755 166.709 771.355 166.398C767.336 165.983 763.107 165.673 761.148 165.673C758.675 165.673 756.195 165.673 753.308 165.778C750.421 165.884 749.08 165.983 746.192 165.983C744.436 165.983 744.127 165.468 744.127 164.947C744.127 164.221 744.949 163.911 746.087 163.911C747.429 163.806 748.152 163.707 749.283 163.496C751.348 163.185 752.374 161.219 752.684 157.188C752.993 152.227 753.197 144.877 753.197 135.984V117.781ZM771.447 129.366C771.447 140.331 771.552 147.463 771.651 149.429C771.854 153.672 772.269 155.737 773.407 156.878C775.261 159.154 779.49 160.599 784.028 160.599C791.242 160.599 797.326 159.049 802.791 153.362C808.151 147.985 809.493 138.781 809.493 129.056C809.493 119.331 806.092 111.269 801.758 105.371C794.643 96.0615 784.85 94.0954 778.043 94.0954C775.774 94.0954 773.406 94.4055 772.473 94.9201C771.651 95.3357 771.545 95.8504 771.545 96.7806C771.651 100.297 771.44 107.746 771.44 116.125V129.366H771.447Z" fill="white"/>
<path d="M870.32 117.781C870.32 100.924 870.215 98.8521 870.011 95.5401C869.807 92.5382 868.88 90.7832 866.302 90.163C865.375 89.9585 863.928 89.9585 862.902 89.853C861.56 89.7474 861.047 89.3383 861.047 88.7182C861.047 88.098 861.666 87.7879 863.316 87.7879C869.196 87.7879 874.142 88.098 878.679 88.098C880.843 88.098 906.104 87.9924 907.755 87.9924C909.82 87.9924 912.293 87.7879 913.325 87.5768C914.049 87.3723 914.562 87.1611 914.976 87.1611C915.489 87.1611 915.594 87.5768 915.594 88.0914C915.594 88.606 915.39 89.6418 915.081 92.6437C914.772 94.7154 914.568 98.3309 914.259 103.708C914.259 104.533 913.845 105.153 913.226 105.153C912.713 105.153 912.299 104.638 912.194 103.708C912.194 102.573 912.089 101.537 911.681 100.086C911.168 97.7041 909.826 96.3648 904.874 95.9491C901.474 95.639 892.503 95.4345 889.406 95.4345C888.788 95.4345 888.584 95.7446 888.584 96.4703V119.225C888.584 119.951 888.689 120.466 889.406 120.466C892.293 120.571 900.645 120.466 904.355 120.36C909.405 120.156 910.747 119.846 911.878 117.979C912.496 117.048 912.806 116.633 913.319 116.633C913.937 116.633 913.937 117.253 913.937 117.873C913.937 118.909 913.424 122.63 913.115 126.668C913.009 129.049 913.009 134.116 913.009 135.251C913.009 136.597 912.7 137.217 912.082 137.217C911.359 137.217 911.155 136.491 910.951 135.561C910.846 134.736 910.747 134.011 910.642 133.179C910.228 130.177 908.787 128.423 903.736 128.112C900.849 127.908 892.392 127.697 889.202 127.697C888.689 127.697 888.584 128.211 888.584 129.043V136.181C888.584 139.698 888.479 145.801 888.584 149.733C888.689 156.97 890.129 158.626 901.573 158.626C904.256 158.626 908.274 158.521 911.161 157.386C914.049 156.251 915.285 153.975 916.212 149.218C916.416 147.978 916.83 147.358 917.449 147.358C918.271 147.358 918.376 148.393 918.376 149.634C918.376 153.665 917.245 161.529 916.725 163.495C916.002 166.187 915.278 166.286 911.464 166.286C897.239 166.286 889.505 165.666 878.679 165.666C873.832 165.666 869.505 165.976 863.829 165.976C861.975 165.976 861.356 165.666 861.356 164.94C861.356 164.426 861.869 163.904 863.422 163.904C864.658 163.799 865.691 163.7 866.513 163.489C869.4 163.073 869.814 159.148 870.018 152.629C870.222 148.492 870.327 142.39 870.327 135.977V117.774L870.32 117.781Z" fill="white"/>
<path d="M1017.24 152.636C1018.06 159.359 1019.1 161.945 1022.5 162.981C1024.57 163.601 1027.04 163.805 1028.38 163.911C1029.72 163.911 1030.34 164.221 1030.34 164.947C1030.34 165.771 1029.52 165.983 1027.87 165.983C1019.31 165.983 1010.96 165.983 999.209 165.362C997.249 165.257 996.835 164.637 996.835 164.122C996.835 163.706 997.249 163.297 997.966 163.086C999.617 162.466 999.722 161.846 999.308 157.188L995.599 120.162L974.363 160.084C971.581 165.362 970.963 165.983 970.134 165.983C969.003 165.983 968.378 164.947 965.497 160.394C961.887 154.602 955.6 142.812 951.68 136.194C949.924 133.192 945.393 124.715 943.433 121.198L940.44 150.366C940.026 154.813 940.026 157.089 940.026 158.639C940.026 161.641 941.058 162.882 943.637 163.396C945.182 163.706 946.109 163.812 947.451 163.911C948.997 163.911 949.306 164.221 949.306 164.841C949.306 165.666 948.891 165.976 947.241 165.976C942.703 165.976 937.034 165.666 933.943 165.666C930.852 165.666 925.899 165.976 922.085 165.976C921.052 165.976 919.816 165.976 919.816 164.94C919.816 164.32 920.434 163.904 921.881 163.904C922.703 163.799 923.841 163.799 924.972 163.594C927.964 162.974 928.99 160.592 930.023 153.77L939.408 90.163C939.822 87.0621 940.539 86.1318 941.571 86.1318C942.703 86.1318 943.426 87.1677 945.59 90.3741L975.08 139.915L1003.33 89.8529C1004.98 87.1611 1005.8 86.1318 1006.83 86.1318C1007.86 86.1318 1008.48 87.5767 1008.79 90.163L1017.24 152.636Z" fill="white"/>
<path d="M1040.54 117.78C1040.54 106.406 1040.54 98.8518 1040.23 95.5398C1040.03 92.6434 1039.1 90.7829 1036.62 90.2617C1035.28 89.9516 1033.94 89.9516 1032.7 89.8461C1031.36 89.8461 1030.85 89.4304 1030.85 88.8102C1030.85 88.1901 1031.16 87.7744 1033.12 87.7744C1037.55 87.7744 1048.07 88.0845 1049.82 88.0845C1054.77 88.0845 1060.54 87.7744 1065.29 87.7744C1079.31 87.7744 1086.12 91.0864 1090.24 94.913C1092.51 97.0836 1095.81 101.636 1095.81 108.669C1095.81 124.596 1081.28 133.179 1067.05 133.179C1066.32 133.179 1064.57 133.074 1063.85 132.869C1063.23 132.664 1062.72 132.453 1062.72 131.833C1062.72 131.213 1063.13 130.797 1064.99 130.797C1073.55 130.797 1077.67 124.074 1077.67 114.765C1077.67 107.627 1076.33 101.939 1072.62 97.9083C1069.93 95.012 1066.43 93.6661 1062.83 93.6661C1061.48 93.6661 1060.66 93.7716 1060.04 93.8706C1059.22 94.0751 1058.81 94.6953 1058.81 96.4569V135.97C1058.81 144.039 1058.81 153.447 1059.32 157.795C1059.52 160.797 1060.25 162.756 1063.34 163.383C1064.78 163.693 1066.64 163.799 1067.88 163.898C1069.42 163.898 1069.84 164.208 1069.84 165.032C1069.84 165.547 1069.32 165.963 1067.77 165.963C1060.65 165.963 1049.73 165.652 1048.8 165.652C1048.29 165.652 1037.05 165.963 1033.55 165.963C1032.11 165.963 1031.48 165.652 1031.48 164.927C1031.48 164.201 1032.3 163.891 1033.44 163.891C1034.47 163.785 1035.51 163.686 1036.53 163.475C1038.6 163.06 1039.52 161.615 1039.93 157.683C1040.35 153.341 1040.55 145.998 1040.55 135.963V117.761L1040.54 117.78Z" fill="white"/>
<path d="M1111.07 117.781C1111.07 101.749 1111.07 98.7467 1110.76 95.4413C1110.55 92.545 1109.41 90.6844 1107.15 90.2688C1106.42 90.0643 1105.39 89.9587 1104.05 89.8531C1102.82 89.8531 1102.09 89.4375 1102.09 88.7183C1102.09 88.0982 1102.61 87.7881 1104.36 87.7881C1108.49 87.7881 1118.59 88.0982 1119.42 88.0982C1120.34 88.0982 1132.51 87.7881 1136.22 87.7881C1137.98 87.7881 1138.49 88.2037 1138.49 88.8239C1138.49 89.6486 1137.56 89.8597 1136.53 89.8597C1135.5 89.9653 1134.88 89.9653 1133.54 90.1698C1130.85 90.6844 1129.83 92.0303 1129.62 95.758C1129.31 99.07 1129.31 101.755 1129.31 117.787V135.99C1129.31 144.158 1129.41 153.777 1129.82 158.125C1130.03 160.817 1130.64 162.677 1133.74 163.403C1135.08 163.713 1136.94 163.819 1138.28 163.918C1140.04 163.918 1140.44 164.333 1140.44 164.954C1140.44 165.468 1139.93 165.989 1138.28 165.989C1131.27 165.989 1120.24 165.679 1119.31 165.679C1118.8 165.679 1107.97 165.989 1104.46 165.989C1102.81 165.989 1101.99 165.785 1101.99 164.954C1101.99 164.228 1102.81 163.918 1104.05 163.918C1105.09 163.812 1106.12 163.713 1107.25 163.502C1109.41 163.192 1110.14 160.916 1110.45 157.914C1110.86 153.573 1111.07 146.124 1111.07 135.99V117.787V117.781Z" fill="white"/>
<path d="M1156.84 117.781C1156.84 101.749 1156.63 99.6836 1156.53 96.3716C1156.33 92.1293 1155.09 90.7834 1152.61 90.2688C1151.06 89.9587 1149.41 89.9587 1148.49 89.8531C1147.25 89.7476 1146.63 89.3385 1146.63 88.7183C1146.63 88.0982 1147.35 87.7881 1148.9 87.7881C1153.33 87.7881 1163.23 88.0982 1164.68 88.0982C1166.64 88.0982 1176.54 87.7881 1181.28 87.7881C1190.97 87.7881 1197.77 88.7183 1202.31 91.3046C1207.25 93.9964 1211.69 99.2679 1211.69 107.132C1211.69 115.821 1206.75 122.439 1197.88 127.921C1204.16 137.026 1211.69 148.09 1217.98 155.328C1223.45 161.43 1225.92 163.185 1228.81 163.601C1229.94 163.806 1230.56 163.806 1231.38 163.911C1232.52 163.911 1233.14 164.327 1233.14 164.947C1233.14 165.877 1232.11 165.983 1231.08 165.983H1221.8C1211.17 165.983 1206.64 164.947 1203.03 162.572C1199.73 160.606 1196.44 156.159 1192.41 149.641C1187.67 141.783 1185.3 137.541 1183.44 134.75C1183.24 134.44 1182.72 134.13 1182.2 134.13H1175.4C1174.88 134.13 1174.58 134.334 1174.58 134.954V140.232C1174.58 148.4 1174.58 153.263 1175.09 157.61C1175.29 160.302 1176.02 162.572 1179.11 163.298C1180.55 163.713 1181.68 163.713 1183.74 163.918C1185.39 164.023 1185.6 164.432 1185.6 165.053C1185.6 165.673 1184.87 165.983 1183.43 165.983C1176.53 165.983 1165.29 165.673 1164.57 165.673C1163.33 165.673 1153.33 165.983 1149.82 165.983C1148.28 165.983 1147.76 165.673 1147.76 164.947C1147.76 164.221 1148.48 163.911 1149.61 163.911C1150.64 163.806 1151.98 163.707 1153.12 163.496C1155.17 162.981 1156 161.114 1156.31 157.597C1156.73 153.256 1156.83 146.012 1156.83 135.984V117.781H1156.84ZM1174.57 124.708C1174.57 125.533 1174.88 125.949 1175.5 126.259C1177.46 127.294 1180.55 127.605 1183.43 127.605C1186.32 127.605 1188.28 127.189 1189.93 125.949C1192.1 124.293 1193.95 119.846 1193.95 112.918C1193.95 98.2321 1184.67 94.4055 1179.31 94.4055C1177.66 94.4055 1175.91 94.511 1175.19 94.8211C1174.77 95.0257 1174.57 95.1312 1174.57 95.9559V124.708Z" fill="white"/>
<path d="M1235.71 117.781C1235.71 100.924 1235.61 98.8521 1235.4 95.5401C1235.2 92.5382 1234.27 90.7832 1231.69 90.163C1230.77 89.9585 1229.32 89.9585 1228.29 89.853C1226.95 89.7474 1226.44 89.3383 1226.44 88.7182C1226.44 88.098 1227.06 87.7879 1228.71 87.7879C1234.59 87.7879 1239.53 88.098 1244.07 88.098C1246.24 88.098 1271.5 87.9924 1273.15 87.9924C1275.21 87.9924 1277.68 87.7879 1278.72 87.5768C1279.44 87.3723 1279.95 87.1611 1280.37 87.1611C1280.88 87.1611 1280.99 87.5768 1280.99 88.0914C1280.99 88.606 1280.78 89.6418 1280.47 92.6437C1280.16 94.7154 1279.96 98.3309 1279.65 103.708C1279.65 104.533 1279.24 105.153 1278.62 105.153C1278.11 105.153 1277.69 104.638 1277.59 103.708C1277.59 102.573 1277.48 101.537 1277.07 100.086C1276.56 97.7041 1275.22 96.3648 1270.27 95.9491C1266.87 95.639 1257.9 95.4345 1254.8 95.4345C1254.18 95.4345 1253.98 95.7446 1253.98 96.4703V119.225C1253.98 119.951 1254.08 120.466 1254.8 120.466C1257.69 120.571 1266.04 120.466 1269.75 120.36C1274.8 120.156 1276.14 119.846 1277.27 117.979C1277.89 117.048 1278.2 116.633 1278.72 116.633C1279.34 116.633 1279.34 117.253 1279.34 117.873C1279.34 118.909 1278.82 122.63 1278.51 126.668C1278.41 129.049 1278.41 134.116 1278.41 135.251C1278.41 136.597 1278.1 137.217 1277.48 137.217C1276.76 137.217 1276.55 136.491 1276.35 135.561C1276.24 134.736 1276.15 134.011 1276.04 133.179C1275.63 130.177 1274.19 128.423 1269.14 128.112C1266.25 127.908 1257.8 127.697 1254.6 127.697C1254.09 127.697 1253.98 128.211 1253.98 129.043V136.181C1253.98 139.698 1253.88 145.801 1253.98 149.733C1254.09 156.97 1255.53 158.626 1266.97 158.626C1269.65 158.626 1273.67 158.521 1276.56 157.386C1279.45 156.251 1280.68 153.975 1281.61 149.218C1281.81 147.978 1282.23 147.358 1282.85 147.358C1283.67 147.358 1283.77 148.393 1283.77 149.634C1283.77 153.665 1282.64 161.529 1282.12 163.495C1281.4 166.187 1280.68 166.286 1276.86 166.286C1262.64 166.286 1254.9 165.666 1244.08 165.666C1239.23 165.666 1234.9 165.976 1229.23 165.976C1227.38 165.976 1226.76 165.666 1226.76 164.94C1226.76 164.426 1227.27 163.904 1228.83 163.904C1230.06 163.799 1231.1 163.7 1231.92 163.489C1234.8 163.073 1235.22 159.148 1235.42 152.629C1235.63 148.492 1235.73 142.39 1235.73 135.977V117.774L1235.71 117.781Z" fill="white"/>
<path d="M1328.4 156.047C1318.3 147.358 1315.41 136.703 1315.41 125.639C1315.41 118.606 1317.79 105.78 1328.2 96.9852C1337.06 89.4375 1347.38 86.3301 1362.33 86.3301C1368.2 86.3301 1372.95 86.9502 1376.96 87.5704C1381.6 88.2962 1384.08 88.8108 1387.17 88.9163C1388.3 89.0219 1388.3 89.6421 1388.3 90.2622C1388.3 91.0869 1387.99 93.5742 1387.79 97.0908C1387.59 100.502 1387.68 106.604 1387.48 109.191C1387.38 110.741 1387.17 111.671 1386.24 111.671C1385.42 111.671 1385.11 110.946 1385.01 109.501C1384.9 107.225 1384.5 103.088 1381.09 99.3669C1377.48 95.5403 1370.26 92.8485 1360.26 92.8485C1354.18 92.8485 1349.13 94.2934 1345.11 97.8099C1338.82 103.292 1336.03 112.912 1336.03 123.976C1336.03 145.28 1347.58 159.557 1364.9 159.557C1373.36 159.557 1378.62 158.831 1382.63 154.279C1384.07 152.728 1385.21 150.452 1386.03 147.351C1386.55 145.181 1386.86 144.455 1387.68 144.455C1388.41 144.455 1388.51 145.491 1388.51 146.315C1388.51 148.077 1387.27 157.07 1386.24 162.038C1386.03 163.588 1385.31 164.419 1383.55 165.039C1379.43 166.695 1372.42 167.421 1365.82 167.421C1352.42 167.421 1339.22 165.145 1328.4 156.047H1328.4Z" fill="white"/>
<path d="M1411.3 144.567C1410.78 144.567 1410.57 144.771 1410.37 145.292L1407.17 153.77C1406.14 156.462 1405.52 159.147 1405.52 160.388C1405.52 162.354 1406.45 163.284 1408.61 163.488C1409.74 163.693 1411.39 163.799 1412.22 163.904C1413.77 163.904 1414.08 164.419 1414.08 164.94C1414.08 165.765 1413.26 165.976 1411.91 165.976C1407.28 165.976 1403.77 165.666 1398.31 165.666C1397.18 165.666 1390.37 165.976 1385.21 165.976C1383.77 165.976 1383.15 165.56 1383.15 164.94C1383.15 164.115 1383.88 163.904 1385.11 163.904C1386.35 163.799 1387.38 163.7 1388.42 163.488C1392.03 162.763 1394.08 159.556 1396.25 154.595L1423.78 92.1222C1425.74 87.6754 1426.87 86.125 1428.01 86.125C1429.04 86.125 1429.97 87.5699 1431.72 91.2975C1434.4 97.0902 1451.72 136.702 1458.73 152.424C1462.23 160.493 1464.5 162.974 1468.11 163.488C1469.24 163.799 1470.49 163.799 1471.41 163.904C1472.75 163.904 1473.37 164.32 1473.37 164.94C1473.37 165.666 1472.65 165.976 1470.69 165.976C1460.59 165.976 1448.83 165.771 1442.23 165.666C1440.58 165.666 1439.96 165.356 1439.96 164.735C1439.96 164.115 1440.48 163.7 1441.41 163.495C1442.54 163.291 1442.96 162.565 1442.65 161.635L1435.74 145.187C1435.64 144.771 1435.23 144.567 1434.92 144.567H1411.31H1411.3ZM1431.91 136.293C1432.53 136.293 1432.53 135.983 1432.43 135.779L1423.36 113.644C1423.05 112.918 1422.84 113.129 1422.63 113.644L1413.87 135.779C1413.76 136.089 1413.97 136.293 1414.28 136.293H1431.91Z" fill="white"/>
<path d="M1477.8 117.781C1477.8 101.749 1477.59 99.6836 1477.49 96.3716C1477.29 92.1293 1476.05 90.7834 1473.57 90.2688C1472.02 89.9587 1470.37 89.9587 1469.45 89.8531C1468.21 89.7476 1467.59 89.3385 1467.59 88.7183C1467.59 88.0982 1468.31 87.7881 1469.86 87.7881C1474.29 87.7881 1484.19 88.0982 1485.64 88.0982C1487.6 88.0982 1497.5 87.7881 1502.24 87.7881C1511.93 87.7881 1518.73 88.7183 1523.27 91.3046C1528.22 93.9964 1532.65 99.2679 1532.65 107.132C1532.65 115.821 1527.71 122.439 1518.84 127.921C1525.12 137.026 1532.65 148.09 1538.94 155.328C1544.41 161.43 1546.88 163.185 1549.77 163.601C1550.9 163.806 1551.52 163.806 1552.34 163.911C1553.48 163.911 1554.1 164.327 1554.1 164.947C1554.1 165.877 1553.07 165.983 1552.04 165.983H1542.76C1532.13 165.983 1527.6 164.947 1523.99 162.572C1520.69 160.606 1517.4 156.159 1513.37 149.641C1508.63 141.783 1506.26 137.541 1504.4 134.75C1504.2 134.44 1503.68 134.13 1503.16 134.13H1496.36C1495.84 134.13 1495.54 134.334 1495.54 134.954V140.232C1495.54 148.4 1495.54 153.263 1496.05 157.61C1496.25 160.302 1496.98 162.572 1500.07 163.298C1501.51 163.713 1502.64 163.713 1504.7 163.918C1506.35 164.023 1506.56 164.432 1506.56 165.053C1506.56 165.673 1505.83 165.983 1504.39 165.983C1497.49 165.983 1486.25 165.673 1485.53 165.673C1484.29 165.673 1474.29 165.983 1470.78 165.983C1469.24 165.983 1468.72 165.673 1468.72 164.947C1468.72 164.221 1469.44 163.911 1470.57 163.911C1471.6 163.806 1472.94 163.707 1474.08 163.496C1476.13 162.981 1476.96 161.114 1477.27 157.597C1477.69 153.256 1477.79 146.012 1477.79 135.984V117.781H1477.8ZM1495.53 124.708C1495.53 125.533 1495.84 125.949 1496.46 126.259C1498.42 127.294 1501.51 127.605 1504.39 127.605C1507.28 127.605 1509.24 127.189 1510.89 125.949C1513.06 124.293 1514.91 119.846 1514.91 112.918C1514.91 98.2321 1505.63 94.4055 1500.27 94.4055C1498.62 94.4055 1496.87 94.511 1496.15 94.8211C1495.73 95.0257 1495.53 95.1312 1495.53 95.9559V124.708Z" fill="white"/>
<path d="M1570.48 143.847C1570.48 132.473 1578.84 125.539 1587.9 121.198C1583.58 115.095 1583.06 110.028 1583.06 105.997C1583.06 96.1732 1591.72 86.3428 1609.97 86.3428C1616.36 86.3428 1621.31 87.4776 1624.3 88.7245C1625.95 89.4502 1626.36 90.2749 1626.36 91.7264C1626.36 94.0026 1625.54 102.692 1625.23 105.898C1625.02 107.448 1624.61 107.97 1623.99 107.97C1623.37 107.97 1622.96 107.35 1622.96 105.898C1622.85 102.692 1621.93 99.7953 1619.45 96.8989C1617.39 94.5172 1613.57 92.1421 1608.83 92.1421C1604.91 92.1421 1599.76 94.0026 1599.76 101.656C1599.76 109.929 1606.15 116.547 1615.32 126.997C1618.1 130.204 1630.89 142.719 1631.82 143.65C1634.7 139.097 1637.08 134.235 1637.08 127.927C1637.08 125.236 1635.95 123.791 1634.39 122.966C1633.26 122.24 1631.61 121.93 1630.58 121.831C1629.34 121.521 1628.73 121.211 1628.73 120.591C1628.73 119.661 1630.17 119.661 1630.99 119.661C1635.32 119.661 1642.54 120.175 1645.84 120.696C1648.01 121.112 1649.15 121.627 1649.25 124.107C1649.35 130.725 1644.71 140.76 1637.49 148.413C1642.34 152.754 1648.52 157.617 1651.2 159.378C1654.91 161.859 1657.39 163.205 1661.1 163.515C1662.75 163.719 1663.17 164.135 1663.17 164.861C1663.17 165.685 1662.35 165.996 1660.28 165.996C1658.94 165.996 1644.19 165.791 1642.86 165.791C1633.58 165.791 1629.25 164.445 1623.27 159.893C1618.22 163.825 1611.1 167.44 1600.17 167.44C1576.76 167.44 1570.48 153.579 1570.48 143.861L1570.48 143.847ZM1618.12 155.327C1608.22 146.018 1600.08 137.019 1591.73 126.674C1590.38 128.224 1588.84 131.635 1588.84 137.428C1588.84 150.359 1597.39 158.111 1607.09 158.111C1611.63 158.111 1615.44 156.977 1618.12 155.321V155.327Z" fill="white"/>
<path d="M416.881 242.653C416.881 250.722 416.881 260.341 417.394 264.682C417.598 267.374 418.321 269.545 421.412 270.06C422.754 270.264 423.99 270.37 425.845 270.574C427.496 270.68 427.904 270.99 427.904 271.709C427.904 272.329 427.391 272.639 425.529 272.639C418.519 272.639 408.516 272.329 406.865 272.329C405.109 272.329 395.112 272.639 391.712 272.639C390.062 272.639 389.338 272.435 389.338 271.603C389.338 270.878 390.16 270.568 391.397 270.568C392.429 270.462 393.56 270.363 394.698 270.152C396.967 269.736 397.69 267.46 398 264.465C398.414 260.124 398.618 252.675 398.618 242.64V202.098C394.599 202.098 388.207 201.992 383.051 202.302C377.277 202.612 375.008 203.958 373.666 207.58C373.153 208.715 372.943 209.342 372.739 209.962C372.535 210.787 372.226 211.618 371.502 211.618C370.575 211.618 370.575 210.793 370.68 209.546C371.094 205.304 372.226 199.723 372.949 195.79C373.153 194.24 373.462 193.204 374.08 193.204C374.804 193.204 375.211 193.514 377.586 194.029C379.44 194.444 385.109 194.755 389.029 194.755H433.875C437.071 194.755 438.926 194.55 440.373 194.339C442.024 194.029 442.846 193.719 443.569 193.719C444.496 193.719 444.602 194.339 444.602 196.925C444.602 198.37 443.983 207.989 443.878 210.576C443.773 212.02 443.464 212.647 442.846 212.647C442.024 212.647 441.813 212.027 441.715 210.787C441.609 209.652 441.609 209.236 441.511 208.715C441.096 205.509 439.551 203.028 433.467 202.612C430.067 202.302 424.701 202.098 416.868 202.098V242.64L416.881 242.653Z" fill="white"/>
<path d="M457.814 224.451C457.814 208.419 457.61 206.353 457.505 203.041C457.301 198.799 456.058 197.453 453.585 196.939C452.04 196.629 450.389 196.629 449.462 196.523C448.225 196.417 447.607 196.008 447.607 195.388C447.607 194.768 448.331 194.458 449.876 194.458C454.309 194.458 464.207 194.768 465.653 194.768C467.613 194.768 477.511 194.458 482.253 194.458C491.947 194.458 498.747 195.388 503.285 197.975C508.237 200.666 512.67 205.938 512.67 213.802C512.67 222.491 507.718 229.109 498.852 234.591C505.14 243.696 512.67 254.76 518.957 261.998C524.422 268.1 526.895 269.855 529.782 270.271C530.914 270.476 531.538 270.476 532.36 270.581C533.492 270.581 534.116 270.997 534.116 271.617C534.116 272.547 533.084 272.653 532.058 272.653H522.778C512.157 272.653 507.626 271.617 504.015 269.242C500.714 267.276 497.419 262.829 493.394 256.31C488.652 248.453 486.278 244.211 484.423 241.42C484.219 241.11 483.7 240.8 483.187 240.8H476.38C475.867 240.8 475.558 241.004 475.558 241.624V246.902C475.558 255.07 475.558 259.933 476.071 264.28C476.275 266.972 476.998 269.242 480.089 269.968C481.53 270.383 482.667 270.383 484.726 270.588C486.377 270.693 486.58 271.102 486.58 271.722C486.58 272.343 485.857 272.653 484.417 272.653C477.511 272.653 466.272 272.343 465.548 272.343C464.312 272.343 454.309 272.653 450.803 272.653C449.258 272.653 448.738 272.343 448.738 271.617C448.738 270.891 449.462 270.581 450.593 270.581C451.626 270.476 452.967 270.377 454.098 270.165C456.163 269.651 456.986 267.784 457.295 264.267C457.709 259.926 457.808 252.682 457.808 242.653V224.451H457.814ZM475.545 231.378C475.545 232.203 475.854 232.619 476.472 232.929C478.432 233.964 481.523 234.275 484.41 234.275C487.297 234.275 489.257 233.859 490.908 232.619C493.072 230.963 494.926 226.516 494.926 219.588C494.926 204.902 485.647 201.075 480.287 201.075C478.636 201.075 476.886 201.181 476.163 201.491C475.749 201.696 475.545 201.801 475.545 202.626V231.378Z" fill="white"/>
<path d="M551.742 239.968C551.742 254.239 553.906 260.243 559.581 264.274C563.81 267.065 567.316 267.17 569.894 267.17C573.195 267.17 577.628 266.444 581.232 263.344C587.006 258.382 587.006 247.516 587.006 236.867V224.457C587.006 209.256 587.006 206.565 586.802 203.253C586.598 199.32 585.77 197.565 582.37 196.945C581.238 196.741 580.614 196.741 578.555 196.53C577.213 196.53 576.7 196.114 576.7 195.494C576.7 194.874 577.213 194.458 579.075 194.458C584.954 194.458 591.241 194.768 592.892 194.768C594.747 194.768 601.448 194.458 606.499 194.458C608.045 194.458 608.663 194.768 608.663 195.494C608.663 196.008 608.249 196.424 606.907 196.53C605.776 196.635 605.151 196.635 603.711 196.945C600.929 197.46 600.1 199.017 599.791 203.253C599.587 206.565 599.482 209.25 599.482 224.457V234.591C599.482 246.381 598.969 259.101 588.966 267.276C582.573 272.653 574.53 274.104 567.519 274.104C558.45 274.104 549.374 272.758 542.982 267.177C537.517 262.624 533.393 255.077 533.393 240.179V224.457C533.393 208.425 533.393 205.529 533.084 202.217C532.88 199.32 532.262 197.975 529.888 197.255C528.757 196.84 526.383 196.635 525.455 196.53C523.91 196.424 523.292 196.015 523.292 195.395C523.292 194.775 524.114 194.465 526.073 194.465C530.506 194.465 540.917 194.775 541.851 194.775C542.673 194.775 554.945 194.465 558.654 194.465C560.41 194.465 560.923 194.775 560.923 195.395C560.923 196.22 560.41 196.431 559.068 196.53C558.141 196.635 556.694 196.734 555.668 196.945C552.781 197.565 552.268 199.736 552.058 203.048C551.847 206.36 551.749 211.216 551.749 224.457V239.975L551.742 239.968Z" fill="white"/>
<path d="M624.841 262.716C614.739 254.027 611.852 243.372 611.852 232.308C611.852 225.275 614.226 212.449 624.637 203.661C633.503 196.113 643.815 193.006 658.763 193.006C664.643 193.006 669.385 193.626 673.403 194.246C678.04 194.972 680.519 195.487 683.61 195.592C684.741 195.698 684.741 196.318 684.741 196.938C684.741 197.763 684.432 200.25 684.228 203.767C684.024 207.177 684.123 213.28 683.919 215.867C683.814 217.417 683.61 218.347 682.683 218.347C681.861 218.347 681.552 217.621 681.446 216.177C681.341 213.9 680.933 209.764 677.527 206.043C673.916 202.216 666.702 199.524 656.698 199.524C650.615 199.524 645.564 200.969 641.546 204.486C635.259 209.968 632.47 219.588 632.47 230.652C632.47 251.955 644.019 266.233 661.342 266.233C669.799 266.233 675.054 265.507 679.072 260.955C680.519 259.404 681.65 257.128 682.472 254.027C682.985 251.856 683.294 251.131 684.123 251.131C684.846 251.131 684.945 252.167 684.945 252.991C684.945 254.753 683.709 263.745 682.676 268.713C682.472 270.264 681.749 271.095 679.993 271.715C675.869 273.371 668.859 274.097 662.262 274.097C648.859 274.097 635.66 271.821 624.835 262.723L624.841 262.716Z" fill="white"/>
<path d="M720.005 230.658C725.674 225.38 734.132 216.487 742.274 207.283C745.674 203.351 747.634 200.454 747.634 198.805C747.634 197.67 747.219 197.044 744.747 196.529C743.819 196.423 742.991 196.219 742.991 195.493C742.991 194.978 743.504 194.563 744.641 194.563C749.278 194.563 749.692 194.767 755.572 194.767C761.451 194.767 769.08 194.563 770.415 194.563C772.171 194.563 772.579 194.767 772.579 195.493C772.579 196.008 772.066 196.423 770.724 196.529C769.179 196.733 768.252 196.839 767.015 197.149C761.964 198.185 758.663 201.286 753.717 206.043C748.975 210.595 737.322 222.695 734.645 225.591C738.663 231.899 755.677 252.589 762.582 259.826C768.771 266.134 771.553 268.41 773.408 269.241C775.262 270.066 776.499 270.376 778.149 270.587C779.596 270.693 780.313 270.897 780.313 271.722C780.313 272.546 779.386 272.652 778.255 272.652H768.153C754.546 272.652 749.797 271.306 744.543 265.513C738.874 259.305 727.634 244.83 720.005 233.555V242.659C720.005 250.728 720.11 260.136 720.518 264.484C720.722 267.07 721.446 269.657 724.951 270.171C726.391 270.376 728.042 270.481 729.384 270.587C730.62 270.587 731.139 271.102 731.139 271.623C731.139 272.144 730.725 272.659 729.18 272.659C722.373 272.659 711.344 272.348 710.416 272.348C709.903 272.348 698.144 272.659 694.744 272.659C693.403 272.659 692.686 272.454 692.686 271.623C692.686 270.897 693.409 270.587 694.54 270.587C695.573 270.481 696.606 270.481 697.737 270.277C700.933 269.762 701.242 267.275 701.551 264.28C701.965 259.938 702.169 252.694 702.169 242.666V224.463C702.169 208.431 702.169 205.535 701.86 202.223C701.656 199.326 700.519 197.466 698.046 196.945C696.5 196.634 695.159 196.634 694.126 196.529C692.784 196.529 691.962 196.324 691.962 195.394C691.962 194.774 692.784 194.464 694.744 194.464C699.177 194.464 709.693 194.774 710.416 194.774C711.344 194.774 723.82 194.464 727.529 194.464C729.285 194.464 729.693 194.88 729.693 195.394C729.693 196.12 729.18 196.43 727.838 196.529C726.911 196.634 726.292 196.634 724.747 196.839C721.136 197.354 720.518 199.735 720.314 203.047C720.11 206.359 720.005 208.424 720.005 224.457V230.665V230.658Z" fill="white"/>
<path d="M814.236 251.236C813.723 251.236 813.512 251.441 813.308 251.962L810.112 260.44C809.08 263.132 808.461 265.817 808.461 267.057C808.461 269.024 809.389 269.954 811.552 270.158C812.684 270.363 814.334 270.468 815.163 270.574C816.708 270.574 817.018 271.089 817.018 271.61C817.018 272.435 816.196 272.646 814.854 272.646C810.217 272.646 806.712 272.336 801.247 272.336C800.116 272.336 793.309 272.646 788.153 272.646C786.712 272.646 786.094 272.23 786.094 271.61C786.094 270.785 786.818 270.574 788.054 270.574C789.29 270.468 790.323 270.369 791.356 270.158C794.966 269.433 797.025 266.226 799.188 261.265L826.718 198.792C828.678 194.345 829.809 192.795 830.947 192.795C831.979 192.795 832.907 194.24 834.656 197.967C837.339 203.76 854.656 243.372 861.666 259.094C865.172 267.163 867.441 269.644 871.051 270.158C872.183 270.468 873.426 270.468 874.353 270.574C875.694 270.574 876.313 270.99 876.313 271.61C876.313 272.336 875.589 272.646 873.629 272.646C863.528 272.646 851.769 272.441 845.172 272.336C843.521 272.336 842.903 272.025 842.903 271.405C842.903 270.785 843.416 270.369 844.344 270.165C845.475 269.96 845.889 269.235 845.58 268.304L838.674 251.857C838.569 251.441 838.162 251.236 837.852 251.236H814.242H814.236ZM834.854 242.963C835.472 242.963 835.472 242.653 835.366 242.448L826.291 220.313C825.982 219.588 825.778 219.799 825.567 220.313L816.801 242.448C816.695 242.759 816.906 242.963 817.215 242.963H834.847H834.854Z" fill="white"/>
<path d="M883.317 262.716C873.215 254.027 870.328 243.372 870.328 232.308C870.328 225.275 872.702 212.449 883.113 203.661C891.978 196.113 902.291 193.006 917.239 193.006C923.119 193.006 927.861 193.626 931.879 194.246C936.515 194.972 938.995 195.487 942.086 195.592C943.217 195.698 943.217 196.318 943.217 196.938C943.217 197.763 942.908 200.25 942.704 203.767C942.5 207.177 942.599 213.28 942.395 215.867C942.29 217.417 942.086 218.347 941.159 218.347C940.337 218.347 940.027 217.621 939.922 216.177C939.817 213.9 939.409 209.764 936.003 206.043C932.392 202.216 925.177 199.524 915.174 199.524C909.091 199.524 904.04 200.969 900.015 204.486C893.728 209.968 890.946 219.588 890.946 230.652C890.946 251.955 902.494 266.233 919.811 266.233C928.268 266.233 933.523 265.507 937.542 260.955C938.982 259.404 940.119 257.128 940.942 254.027C941.455 251.856 941.764 251.131 942.592 251.131C943.316 251.131 943.414 252.167 943.414 252.991C943.414 254.753 942.178 263.745 941.146 268.713C940.942 270.264 940.218 271.095 938.462 271.715C934.339 273.371 927.328 274.097 920.732 274.097C907.328 274.097 894.129 271.821 883.304 262.723L883.317 262.716Z" fill="white"/>
<path d="M963.216 262.716C953.114 254.027 950.227 243.372 950.227 232.308C950.227 225.275 952.601 212.449 963.012 203.661C971.877 196.113 982.19 193.006 997.138 193.006C1003.02 193.006 1007.76 193.626 1011.78 194.246C1016.41 194.972 1018.89 195.487 1021.98 195.592C1023.12 195.698 1023.12 196.318 1023.12 196.938C1023.12 197.763 1022.81 200.25 1022.6 203.767C1022.4 207.177 1022.5 213.28 1022.29 215.867C1022.19 217.417 1021.98 218.347 1021.06 218.347C1020.24 218.347 1019.93 217.621 1019.82 216.177C1019.72 213.9 1019.31 209.764 1015.9 206.043C1012.29 202.216 1005.08 199.524 995.073 199.524C988.99 199.524 983.939 200.969 979.914 204.486C973.627 209.968 970.845 219.588 970.845 230.652C970.845 251.955 982.393 266.233 999.71 266.233C1008.17 266.233 1013.42 265.507 1017.44 260.955C1018.88 259.404 1020.02 257.128 1020.84 254.027C1021.35 251.856 1021.66 251.131 1022.49 251.131C1023.21 251.131 1023.31 252.167 1023.31 252.991C1023.31 254.753 1022.08 263.745 1021.04 268.713C1020.84 270.264 1020.12 271.095 1018.36 271.715C1014.24 273.371 1007.23 274.097 1000.63 274.097C987.227 274.097 974.028 271.821 963.203 262.723L963.216 262.716Z" fill="white"/>
<path d="M1040.54 224.451C1040.54 208.419 1040.54 205.417 1040.24 202.111C1040.03 199.215 1038.89 197.354 1036.62 196.939C1035.9 196.734 1034.87 196.629 1033.53 196.523C1032.3 196.523 1031.57 196.107 1031.57 195.388C1031.57 194.768 1032.09 194.458 1033.84 194.458C1037.97 194.458 1048.07 194.768 1048.9 194.768C1049.82 194.768 1061.99 194.458 1065.7 194.458C1067.46 194.458 1067.97 194.874 1067.97 195.494C1067.97 196.319 1067.04 196.53 1066.01 196.53C1064.98 196.635 1064.36 196.635 1063.02 196.84C1060.33 197.354 1059.31 198.7 1059.1 202.428C1058.79 205.74 1058.79 208.425 1058.79 224.457V242.66C1058.79 250.828 1058.89 260.447 1059.3 264.795C1059.5 267.487 1060.12 269.347 1063.22 270.073C1064.56 270.383 1066.42 270.489 1067.76 270.588C1069.51 270.588 1069.92 271.003 1069.92 271.624C1069.92 272.138 1069.41 272.659 1067.76 272.659C1060.75 272.659 1049.72 272.349 1048.79 272.349C1048.28 272.349 1037.45 272.659 1033.94 272.659C1032.29 272.659 1031.47 272.455 1031.47 271.624C1031.47 270.898 1032.29 270.588 1033.53 270.588C1034.57 270.482 1035.6 270.383 1036.73 270.172C1038.89 269.862 1039.62 267.586 1039.93 264.584C1040.34 260.243 1040.54 252.794 1040.54 242.66V224.457V224.451Z" fill="white"/>
<path d="M1086.32 224.451C1086.32 209.25 1086.32 206.353 1086.12 203.041C1085.92 200.04 1085.4 197.249 1081.48 196.833C1080.66 196.728 1079.63 196.728 1077.67 196.523C1076.12 196.417 1075.71 195.903 1075.71 195.388C1075.71 194.768 1076.33 194.458 1078.08 194.458C1080.66 194.458 1090.15 194.768 1094.68 194.768C1098.08 194.768 1102.73 194.663 1111.39 194.564C1129.02 194.669 1142.83 196.945 1152.22 206.565C1157.48 211.843 1162.11 220.525 1162.11 232.836C1162.11 245.147 1156.65 255.591 1150.78 261.173C1145.72 266.345 1136.24 273.484 1115.51 273.484C1111.39 273.484 1107.88 273.378 1104.48 273.068C1100.46 272.653 1096.24 272.343 1094.28 272.343C1091.8 272.343 1089.32 272.343 1086.44 272.448C1083.55 272.554 1082.21 272.653 1079.32 272.653C1077.56 272.653 1077.25 272.138 1077.25 271.617C1077.25 270.891 1078.08 270.581 1079.21 270.581C1080.56 270.476 1081.28 270.377 1082.41 270.165C1084.48 269.855 1085.5 267.889 1085.81 263.858C1086.12 258.897 1086.32 251.547 1086.32 242.653V224.451ZM1104.57 236.036C1104.57 247.001 1104.68 254.133 1104.78 256.099C1104.98 260.342 1105.4 262.407 1106.53 263.548C1108.39 265.824 1112.62 267.269 1117.16 267.269C1124.37 267.269 1130.45 265.719 1135.92 260.032C1141.28 254.655 1142.62 245.451 1142.62 235.726C1142.62 226.001 1139.22 217.939 1134.89 212.041C1127.77 202.731 1117.98 200.765 1111.17 200.765C1108.9 200.765 1106.53 201.075 1105.6 201.59C1104.78 202.006 1104.67 202.52 1104.67 203.451C1104.78 206.967 1104.57 214.416 1104.57 222.795V236.036H1104.57Z" fill="white"/>
<path d="M1179.22 224.451C1179.22 207.594 1179.11 205.522 1178.91 202.21C1178.71 199.208 1177.78 197.453 1175.2 196.833C1174.27 196.628 1172.83 196.628 1171.8 196.523C1170.46 196.417 1169.95 196.008 1169.95 195.388C1169.95 194.768 1170.56 194.458 1172.22 194.458C1178.09 194.458 1183.04 194.768 1187.58 194.768C1189.74 194.768 1215 194.662 1216.65 194.662C1218.72 194.662 1221.19 194.458 1222.22 194.247C1222.95 194.042 1223.46 193.831 1223.87 193.831C1224.39 193.831 1224.49 194.247 1224.49 194.761C1224.49 195.276 1224.29 196.312 1223.98 199.314C1223.67 201.385 1223.47 205.001 1223.16 210.378C1223.16 211.203 1222.74 211.823 1222.13 211.823C1221.61 211.823 1221.2 211.308 1221.09 210.378C1221.09 209.243 1220.99 208.207 1220.58 206.756C1220.07 204.374 1218.73 203.035 1213.77 202.619C1210.37 202.309 1201.4 202.104 1198.3 202.104C1197.69 202.104 1197.48 202.415 1197.48 203.14V225.895C1197.48 226.621 1197.59 227.136 1198.3 227.136C1201.19 227.241 1209.54 227.136 1213.25 227.03C1218.3 226.826 1219.65 226.516 1220.78 224.648C1221.4 223.718 1221.7 223.303 1222.22 223.303C1222.84 223.303 1222.84 223.923 1222.84 224.543C1222.84 225.579 1222.32 229.3 1222.01 233.337C1221.91 235.719 1221.91 240.786 1221.91 241.921C1221.91 243.267 1221.6 243.887 1220.98 243.887C1220.26 243.887 1220.05 243.161 1219.85 242.231C1219.74 241.406 1219.65 240.681 1219.54 239.849C1219.13 236.847 1217.69 235.092 1212.64 234.782C1209.75 234.578 1201.29 234.367 1198.1 234.367C1197.59 234.367 1197.48 234.881 1197.48 235.713V242.851C1197.48 246.368 1197.38 252.471 1197.48 256.403C1197.59 263.64 1199.03 265.296 1210.47 265.296C1213.15 265.296 1217.17 265.191 1220.06 264.056C1222.95 262.921 1224.18 260.645 1225.11 255.888C1225.32 254.648 1225.73 254.028 1226.35 254.028C1227.17 254.028 1227.27 255.063 1227.27 256.304C1227.27 260.335 1226.14 268.199 1225.62 270.165C1224.9 272.857 1224.18 272.956 1220.36 272.956C1206.14 272.956 1198.4 272.336 1187.58 272.336C1182.73 272.336 1178.4 272.646 1172.73 272.646C1170.87 272.646 1170.26 272.336 1170.26 271.61C1170.26 271.096 1170.77 270.574 1172.32 270.574C1173.56 270.469 1174.59 270.37 1175.41 270.159C1178.3 269.743 1178.71 265.817 1178.92 259.299C1179.12 255.162 1179.23 249.06 1179.23 242.647V224.444L1179.22 224.451Z" fill="white"/>
<path d="M1243.24 197.869C1243.35 194.768 1243.76 192.907 1245 192.907C1245.82 192.907 1246.34 193.217 1249.02 195.388C1253.34 199.01 1258.71 204.183 1282.32 225.902C1292.84 235.627 1299.95 242.554 1302.74 245.035L1302.12 206.248C1301.91 200.455 1301.39 197.77 1297.27 197.044C1295.83 196.734 1294.18 196.628 1292.73 196.529C1291.39 196.529 1290.88 196.015 1290.88 195.493C1290.88 194.768 1291.81 194.458 1292.94 194.458C1297.07 194.458 1303.77 194.768 1307.89 194.768C1310.16 194.768 1315.32 194.458 1319.64 194.458C1321.19 194.458 1321.91 194.768 1321.91 195.388C1321.91 195.903 1321.4 196.523 1320.16 196.523C1318.82 196.628 1318.3 196.628 1317.58 196.833C1314.18 197.248 1313.15 199.003 1312.84 205.416C1312.02 226.205 1312.02 246.889 1311.6 267.678C1311.6 272.956 1310.88 274.091 1309.54 274.091C1307.88 274.091 1304.69 271.61 1297.99 265.712C1290.98 259.503 1281.9 251.336 1275.72 245.648C1269.94 240.37 1259.63 230.652 1252.11 223.309L1253.14 258.58C1253.34 266.028 1253.76 268.819 1256.65 269.855C1258.19 270.37 1260.05 270.37 1262.11 270.581C1263.66 270.686 1264.17 270.996 1264.17 271.617C1264.17 272.441 1263.35 272.652 1261.7 272.652C1258.09 272.652 1254.79 272.448 1248.4 272.342C1246.03 272.342 1238.4 272.652 1234.38 272.652C1232.93 272.652 1232.11 272.448 1232.11 271.617C1232.11 270.996 1232.62 270.581 1234.07 270.581C1235 270.475 1236.34 270.475 1237.47 270.271C1241.49 269.65 1242.01 267.064 1242.32 257.445C1242.83 236.141 1242.62 211.209 1243.24 197.869Z" fill="white"/>
<path d="M1368.92 242.653C1368.92 250.722 1368.92 260.341 1369.44 264.682C1369.64 267.374 1370.36 269.545 1373.45 270.06C1374.8 270.264 1376.03 270.37 1377.89 270.574C1379.54 270.68 1379.95 270.99 1379.95 271.709C1379.95 272.329 1379.44 272.639 1377.58 272.639C1370.57 272.639 1360.56 272.329 1358.91 272.329C1357.16 272.329 1347.16 272.639 1343.76 272.639C1342.11 272.639 1341.39 272.435 1341.39 271.603C1341.39 270.878 1342.21 270.568 1343.44 270.568C1344.48 270.462 1345.61 270.363 1346.75 270.152C1349.02 269.736 1349.74 267.46 1350.05 264.465C1350.46 260.124 1350.67 252.675 1350.67 242.64V202.098C1346.65 202.098 1340.26 201.992 1335.1 202.302C1329.32 202.612 1327.06 203.958 1325.71 207.58C1325.2 208.715 1324.99 209.342 1324.79 209.962C1324.58 210.787 1324.27 211.618 1323.55 211.618C1322.62 211.618 1322.62 210.793 1322.73 209.546C1323.14 205.304 1324.27 199.723 1325 195.79C1325.2 194.24 1325.51 193.204 1326.13 193.204C1326.85 193.204 1327.26 193.514 1329.63 194.029C1331.49 194.444 1337.16 194.755 1341.08 194.755H1385.92C1389.12 194.755 1390.97 194.55 1392.42 194.339C1394.07 194.029 1394.89 193.719 1395.62 193.719C1396.54 193.719 1396.65 194.339 1396.65 196.925C1396.65 198.37 1396.03 207.989 1395.93 210.576C1395.82 212.02 1395.51 212.647 1394.89 212.647C1394.07 212.647 1393.86 212.027 1393.76 210.787C1393.66 209.652 1393.66 209.236 1393.56 208.715C1393.14 205.509 1391.6 203.028 1385.52 202.612C1382.12 202.302 1376.75 202.098 1368.92 202.098V242.64L1368.92 242.653Z" fill="white"/>
<path d="M1452.33 242.759C1452.33 253.203 1452.03 260.652 1453.78 262.822C1455.22 264.788 1457.18 265.303 1465.74 265.303C1471.41 265.303 1474.71 265.197 1477.6 263.647C1480.07 262.512 1481.82 259.82 1482.96 254.958C1483.26 253.823 1483.47 252.992 1484.3 252.992C1485.02 252.992 1485.12 253.507 1485.12 254.958C1485.12 257.34 1483.99 267.164 1482.96 270.165C1482.13 272.857 1481.3 272.956 1477.18 272.956C1462.96 272.956 1453.37 272.336 1442.44 272.336C1437.59 272.336 1432.03 272.646 1426.35 272.646C1424.91 272.646 1424.08 272.442 1424.08 271.511C1424.08 270.891 1424.7 270.581 1426.15 270.581C1427.38 270.476 1428.52 270.377 1429.65 270.165C1433.36 269.545 1433.47 267.685 1433.78 259.411C1433.98 255.275 1434.08 249.066 1434.08 242.653V224.451C1434.08 207.594 1433.98 205.727 1433.78 202.421C1433.57 199.525 1432.85 197.77 1430.27 197.044C1429.34 196.734 1427.8 196.629 1426.25 196.53C1425.12 196.53 1424.09 196.325 1424.09 195.494C1424.09 194.663 1425.12 194.458 1427.18 194.458C1433.06 194.458 1438.42 194.768 1442.44 194.768C1443.36 194.768 1456.15 194.458 1459.86 194.458C1461.71 194.458 1462.33 194.768 1462.33 195.388C1462.33 196.319 1461.3 196.523 1459.86 196.523C1458.83 196.629 1457.79 196.629 1456.35 196.939C1453.57 197.453 1452.85 199.419 1452.64 203.041C1452.44 206.353 1452.33 208.419 1452.33 225.487V242.759Z" fill="white"/>
<path d="M1504.19 251.236C1503.68 251.236 1503.47 251.441 1503.26 251.962L1500.07 260.44C1499.04 263.132 1498.42 265.817 1498.42 267.057C1498.42 269.024 1499.34 269.954 1501.51 270.158C1502.64 270.363 1504.29 270.468 1505.12 270.574C1506.66 270.574 1506.97 271.089 1506.97 271.61C1506.97 272.435 1506.15 272.646 1504.81 272.646C1500.17 272.646 1496.67 272.336 1491.2 272.336C1490.07 272.336 1483.26 272.646 1478.11 272.646C1476.67 272.646 1476.05 272.23 1476.05 271.61C1476.05 270.785 1476.77 270.574 1478.01 270.574C1479.25 270.468 1480.28 270.369 1481.31 270.158C1484.92 269.433 1486.98 266.226 1489.14 261.265L1516.67 198.792C1518.63 194.345 1519.77 192.795 1520.9 192.795C1521.94 192.795 1522.86 194.24 1524.61 197.967C1527.3 203.76 1544.61 243.372 1551.62 259.094C1555.13 267.163 1557.4 269.644 1561.01 270.158C1562.14 270.468 1563.38 270.468 1564.31 270.574C1565.65 270.574 1566.27 270.99 1566.27 271.61C1566.27 272.336 1565.55 272.646 1563.59 272.646C1553.48 272.646 1541.72 272.441 1535.13 272.336C1533.48 272.336 1532.86 272.025 1532.86 271.405C1532.86 270.785 1533.37 270.369 1534.31 270.165C1535.44 269.96 1535.85 269.235 1535.54 268.304L1528.64 251.857C1528.53 251.441 1528.12 251.236 1527.82 251.236H1504.2H1504.19ZM1524.81 242.963C1525.43 242.963 1525.43 242.653 1525.32 242.448L1516.25 220.313C1515.94 219.588 1515.74 219.799 1515.53 220.313L1506.76 242.448C1506.66 242.759 1506.87 242.963 1507.18 242.963H1524.81Z" fill="white"/>
<path d="M1561.62 204.592C1559.97 200.145 1558.84 197.869 1556.46 197.143C1555.12 196.728 1554.19 196.728 1553.16 196.523C1551.92 196.417 1551.51 196.008 1551.51 195.388C1551.51 194.768 1552.23 194.458 1553.67 194.458C1560.07 194.458 1567.08 194.768 1568.62 194.768C1571.1 194.768 1578.42 194.458 1583.99 194.458C1585.43 194.458 1586.15 194.768 1586.15 195.494C1586.15 196.22 1585.43 196.53 1584.5 196.53C1583.47 196.635 1583.06 196.635 1581.92 196.945C1580.68 197.15 1580.07 197.981 1580.07 199.221C1580.07 200.567 1581.1 203.774 1582.54 208.531C1583.67 212.252 1591.4 236.353 1594.81 245.246L1613.06 198.39C1614.09 195.698 1614.92 194.669 1615.95 194.669C1617.29 194.669 1617.91 196.53 1619.45 199.532L1640.07 245.352C1643.06 236.663 1648.42 219.08 1651.31 208.841C1652.55 204.599 1653.38 201.498 1653.38 200.046C1653.38 197.876 1652.55 197.044 1647.09 196.53C1646.16 196.53 1645.33 196.114 1645.33 195.599C1645.33 194.979 1645.54 194.465 1647.5 194.465C1654.09 194.465 1659.35 194.775 1660.28 194.775C1661 194.775 1668.32 194.57 1671.93 194.57C1673.16 194.57 1673.99 194.676 1673.99 195.5C1673.99 196.121 1673.57 196.536 1672.34 196.536C1671.3 196.642 1670.58 196.642 1669.03 197.051C1666.04 197.671 1664.5 200.673 1661.82 208.016C1657.39 220.327 1647.59 248.149 1640.06 267.797C1638.83 271.208 1637.69 274.104 1635.94 274.104C1634.6 274.104 1633.78 272.554 1632.13 268.932L1611.51 224.563C1607.28 235.112 1598.11 257.142 1592.95 268.213C1591.3 271.934 1590.06 274.111 1588.41 274.111C1587.07 274.111 1586.35 272.56 1584.49 267.698L1561.61 204.605L1561.62 204.592Z" fill="white"/>
<path d="M369.963 309.487L376.717 306.399V308.359C376.717 311.921 376.816 315.24 377.02 318.301C377.217 321.362 377.592 325.73 378.144 331.404C378.842 338.028 379.368 342.072 379.723 343.53C380.071 344.988 380.67 345.714 381.525 345.714C382.623 345.714 384.425 343.946 386.931 340.403C389.43 336.867 391.883 332.585 394.29 327.564L391.962 309.493L398.795 306.406L398.867 308.286C399.269 319.027 399.696 326.733 400.143 331.404C400.295 332.611 400.446 333.878 400.591 335.204C400.742 336.537 400.854 337.579 400.926 338.331C400.998 339.084 401.117 339.948 401.261 340.931C401.413 341.907 401.511 342.547 401.564 342.851C401.965 344.507 402.616 345.338 403.517 345.338C405.319 345.338 408.423 341.749 412.823 334.571C416.973 327.947 419.051 322.345 419.051 317.78C419.051 314.118 417.848 311.453 415.447 309.797L421.149 304.525C422.899 306.531 423.78 309.144 423.78 312.357C423.78 315.873 422.806 319.865 420.853 324.331C418.9 328.798 416 333.792 412.146 339.315C409.745 342.679 407.542 345.463 405.543 347.674C403.34 350.187 401.538 351.441 400.137 351.441C399.038 351.441 398.21 350.926 397.657 349.897C397.105 348.868 396.684 347.126 396.382 344.665L394.731 331.186C392.528 335.653 390.002 339.823 387.148 343.689C383.393 348.861 380.394 351.447 378.138 351.447C377.086 351.447 376.31 350.986 375.81 350.055C375.31 349.125 374.856 347.41 374.462 344.896L369.957 309.5L369.963 309.487Z" fill="#05515F"/>
<path d="M442.852 306.399L436.249 331.173C435.151 335.238 434.598 338.503 434.598 340.964C434.598 342.574 434.874 343.874 435.42 344.883C435.973 345.886 436.696 346.388 437.597 346.388C439.149 346.388 441.622 344.534 445.029 340.813L446.232 341.868L445.483 342.699C442.628 346.064 440.53 348.334 439.176 349.515C437.821 350.696 436.571 351.283 435.42 351.283C433.868 351.283 432.553 350.491 431.481 348.908C430.402 347.324 429.87 345.358 429.87 342.996C429.87 341.492 430.172 339.104 430.771 335.845L435.499 309.487L442.859 306.399H442.852ZM445.029 276.882C446.331 276.882 447.383 277.284 448.179 278.089C448.981 278.894 449.383 279.95 449.383 281.249C449.383 282.549 448.955 283.559 448.107 284.41C447.258 285.261 446.232 285.69 445.029 285.69C443.825 285.69 442.852 285.234 441.951 284.337C441.05 283.433 440.603 282.404 440.603 281.249C440.603 280.095 441.03 279.019 441.879 278.162C442.727 277.304 443.779 276.882 445.029 276.882Z" fill="#05515F"/>
<path d="M464.319 310.239L458.617 335.316C458.018 338.081 457.716 340.034 457.716 341.188C457.716 342.996 458.143 344.454 458.991 345.556C459.84 346.658 460.964 347.212 462.372 347.212C463.779 347.212 464.963 346.823 466.088 346.044C467.212 345.266 468.929 343.649 471.231 341.188L472.132 340.284L473.256 341.413C470.303 345.028 467.837 347.575 465.864 349.053C463.885 350.53 461.944 351.276 460.044 351.276C457.643 351.276 455.73 350.484 454.302 348.901C452.875 347.317 452.165 345.246 452.165 342.686C452.165 340.779 452.54 338.015 453.29 334.399L458.169 310.226H450.961L451.488 307.666H458.696L462.898 287.332L470.106 284.469L464.851 307.659H477.012L476.485 310.219H464.325L464.319 310.239Z" fill="#05515F"/>
<path d="M477.228 351.203L497.195 248.188L505.074 244.349L484.278 336.068C484.475 335.719 484.581 335.494 484.581 335.389L486.304 331.47C489.257 324.74 492.959 318.921 497.412 313.999C501.614 309.434 505.494 307.145 509.046 307.145C510.946 307.145 512.472 307.758 513.623 308.992C514.774 310.226 515.353 311.868 515.353 313.927C515.353 315.081 515.077 316.711 514.524 318.822L513.774 321.983L511.446 331.173L510.769 334.109C510.019 337.124 509.644 339.433 509.644 341.036C509.644 342.64 509.921 343.933 510.466 344.916C511.019 345.892 511.742 346.387 512.643 346.387C514.195 346.387 516.668 344.533 520.075 340.812L521.199 341.868L520.522 342.699C517.668 346.064 515.557 348.333 514.182 349.514C512.808 350.695 511.565 351.282 510.466 351.282C508.914 351.282 507.586 350.451 506.488 348.795C505.389 347.139 504.837 345.206 504.837 342.996C504.837 341.643 505.159 339.255 505.81 335.844L508.664 319.878C509.118 317.516 509.342 315.761 509.342 314.606C509.342 313.551 509.066 312.753 508.52 312.198C507.967 311.644 507.218 311.367 506.27 311.367C504.416 311.367 502.292 312.462 499.891 314.646C497.491 316.83 495.07 319.858 492.65 323.718C490.223 327.584 488.106 331.714 486.304 336.108C484.502 340.502 483.154 345.008 482.253 349.626L477.221 351.21L477.228 351.203Z" fill="#05515F"/>
<path d="M620.98 253.387L629.162 249.771C628.563 254.093 627.932 257.629 627.287 260.387L625.788 266.787L625.262 269.122C629.714 272.434 633.64 275.977 637.047 279.738C640.447 283.505 643.4 287.497 645.906 291.712C648.405 295.928 650.273 300.098 651.496 304.215C652.719 308.332 653.337 312.396 653.337 316.414C653.337 321.639 652.41 326.429 650.562 330.797C648.707 335.164 646.044 338.978 642.565 342.243C639.086 345.509 634.982 348.043 630.253 349.85C625.525 351.658 620.454 352.562 615.055 352.562C606.696 352.562 597.64 350.853 587.88 347.442L586.006 346.763C582.303 348.874 578.725 350.431 575.272 351.434C571.82 352.437 568.288 352.938 564.691 352.938C561.093 352.938 557.897 352.226 555.569 350.794C553.241 349.362 552.077 347.495 552.077 345.186C552.077 343.378 552.715 341.808 553.99 340.482C555.266 339.149 557.055 338.107 559.357 337.355C561.659 336.602 564.336 336.226 567.387 336.226C571.688 336.226 578.646 337.559 588.255 340.218L589.978 340.746C593.181 337.632 596.285 333.29 599.284 327.716C603.684 319.534 608.064 307.632 612.417 292.023C614.667 284.244 616.396 277.462 617.6 271.689C613.943 268.825 609.839 266.239 605.288 263.93C600.737 261.621 596.232 259.813 591.78 258.507C587.327 257.2 583.349 256.547 579.843 256.547C575.687 256.547 572.372 257.517 569.899 259.444C567.42 261.377 566.184 263.976 566.184 267.235C566.184 269.294 566.821 271.365 568.097 273.45C569.373 275.535 571.162 277.508 573.464 279.362C575.766 281.222 578.646 282.924 582.099 284.481L577.443 289.073C573.036 286.764 569.597 283.828 567.124 280.266C564.645 276.703 563.408 272.936 563.408 268.97C563.408 265.659 564.283 262.736 566.039 260.196C567.788 257.662 570.241 255.69 573.398 254.284C576.548 252.879 580.106 252.173 584.059 252.173C594.22 252.173 605.88 256.316 619.04 264.596C620.092 260.783 620.743 257.042 620.993 253.374L620.98 253.387ZM583.296 345.786C574.339 343.029 567.256 341.643 562.053 341.643C559.85 341.643 558.14 342.006 556.91 342.738C555.681 343.464 555.069 344.48 555.069 345.786C555.069 347.192 556.042 348.399 557.996 349.402C559.949 350.405 562.376 350.906 565.276 350.906C571.129 350.906 577.134 349.197 583.289 345.786H583.296ZM592.977 341.795L595.002 342.474C601.257 344.381 606.413 345.74 610.464 346.538C614.515 347.343 618.396 347.746 622.098 347.746C627.3 347.746 632.016 346.492 636.245 343.979C640.473 341.471 643.827 337.981 646.3 333.508C648.78 329.042 650.016 324.146 650.016 318.822C650.016 304.967 641.21 290.71 623.591 276.05C623.144 278.161 622.039 282.278 620.29 288.4C617.435 298.04 615.035 305.27 613.082 310.087C607.327 324.542 600.619 335.111 592.964 341.788L592.977 341.795Z" fill="#05515F"/>
<path d="M691.693 338.78L693.041 339.908C689.937 344.025 686.911 347.001 683.959 348.835C681.006 350.669 677.829 351.586 674.422 351.586C670.371 351.586 667.116 350.234 664.663 347.522C662.21 344.81 660.986 341.221 660.986 336.755C660.986 332.288 662.177 327.657 664.551 323.012C666.925 318.367 669.904 314.527 673.482 311.493C677.06 308.458 680.598 306.934 684.103 306.934C686.155 306.934 687.845 307.534 689.167 308.741C690.496 309.949 691.153 311.506 691.153 313.412C691.153 317.279 689.049 321.145 684.846 325.011C680.644 328.877 674.909 332.163 667.655 334.874C667.602 335.277 667.583 335.726 667.583 336.227C667.583 339.691 668.536 342.514 670.437 344.698C672.338 346.882 674.791 347.977 677.796 347.977C680.151 347.977 682.426 347.238 684.629 345.754C686.833 344.276 689.18 341.954 691.686 338.787L691.693 338.78ZM667.668 333.06C673.074 330.652 677.224 327.967 680.131 325.004C682.084 322.999 683.663 320.835 684.86 318.526C686.063 316.216 686.662 314.132 686.662 312.278C686.662 309.916 685.583 308.741 683.432 308.741C680.177 308.741 676.889 311.314 673.561 316.461C670.233 321.607 668.267 327.142 667.668 333.067V333.06Z" fill="#05515F"/>
<path d="M718.045 248.188L726.003 244.349L704.386 337.197C713.396 317.015 722.228 306.927 730.883 306.927C732.632 306.927 734.197 307.389 735.572 308.319C736.946 309.249 738.025 310.615 738.801 312.423C739.577 314.23 739.965 316.137 739.965 318.143C739.965 321.956 739.064 326.185 737.262 330.83C735.46 335.475 733.185 339.453 730.429 342.765C725.523 348.742 720.117 351.725 714.218 351.725C712.363 351.725 710.587 351.408 708.891 350.781C707.187 350.154 705.287 349.112 703.189 347.654L697.934 350.814L718.052 248.175L718.045 248.188ZM704.386 342.772C706.635 347.489 709.864 349.851 714.066 349.851C717.072 349.851 719.86 348.545 722.438 345.932C725.016 343.319 727.305 339.532 729.304 334.564C730.455 331.754 731.409 328.706 732.159 325.413C732.908 322.128 733.283 319.502 733.283 317.542C733.283 312.825 731.633 310.463 728.331 310.463C726.128 310.463 723.629 311.816 720.827 314.527C718.026 317.239 715.211 321.019 712.383 325.862C709.555 330.705 706.891 336.339 704.386 342.765V342.772Z" fill="#05515F"/>
<path d="M746.115 335.996C746.115 331.476 747.331 326.97 749.758 322.477C752.185 317.984 755.322 314.329 759.176 311.519C763.03 308.708 766.956 307.303 770.961 307.303C775.164 307.303 778.557 308.695 781.135 311.479C783.713 314.263 785.002 317.865 785.002 322.286C785.002 327.109 783.812 331.773 781.438 336.293C779.057 340.812 775.933 344.513 772.053 347.403C768.173 350.293 764.259 351.731 760.307 351.731C756.052 351.731 752.625 350.286 750.021 347.403C747.417 344.513 746.115 340.713 746.115 335.996ZM778.241 319.429C778.241 316.414 777.505 313.933 776.025 311.974C774.545 310.014 772.658 309.038 770.356 309.038C768.251 309.038 766.239 309.717 764.312 311.07C762.385 312.422 760.623 314.408 759.018 317.021C757.216 320.036 755.73 323.546 754.552 327.564C753.375 331.582 752.79 335.145 752.79 338.259C752.79 341.973 753.513 344.836 754.967 346.842C756.42 348.848 758.492 349.857 761.195 349.857C765.549 349.857 769.376 346.822 772.678 340.746C774.381 337.632 775.729 334.148 776.729 330.276C777.728 326.409 778.228 322.794 778.228 319.429H778.241Z" fill="#05515F"/>
<path d="M791.158 329.068C795.459 323.849 798.339 318.98 799.793 314.461C795.742 312.205 793.709 308.965 793.709 304.749C793.709 302.744 794.183 301.107 795.137 299.854C796.084 298.6 797.287 297.974 798.741 297.974C800.194 297.974 801.47 298.666 802.417 300.045C803.364 301.424 803.844 303.219 803.844 305.429C803.844 306.986 803.568 308.715 803.015 310.628C804.364 310.977 805.593 311.156 806.692 311.156C809.796 311.156 812.348 310.252 814.347 308.444H817.951L817.425 309.5C813.821 316.124 810.855 322.642 808.527 329.042C806.199 335.441 805.034 340.225 805.034 343.385C805.034 344.539 805.337 345.509 805.935 346.281C806.534 347.06 807.264 347.449 808.112 347.449C810.164 347.449 813.466 345.265 818.023 340.898L819.227 342.25C817.826 343.807 815.649 345.74 812.696 348.049C810.046 350.161 807.566 351.21 805.265 351.21C803.311 351.21 801.772 350.556 800.648 349.25C799.523 347.944 798.958 346.162 798.958 343.906C798.958 340.139 800.411 335.369 803.311 329.596C804.364 327.438 805.712 324.978 807.363 322.213C809.013 319.455 811.091 316.163 813.591 312.35L814.34 311.294C812.69 312.798 811.098 313.867 809.572 314.494C808.047 315.121 806.31 315.437 804.357 315.437C803.456 315.437 802.502 315.312 801.503 315.061C799.898 319.983 796.899 325.05 792.493 330.275L791.145 329.068H791.158ZM801.444 309.942C801.641 308.688 801.746 307.632 801.746 306.781C801.746 305.026 801.457 303.648 800.885 302.638C800.306 301.635 799.569 301.134 798.668 301.134C798.168 301.134 797.728 301.371 797.353 301.846C796.978 302.321 796.787 302.915 796.787 303.615C796.787 305.977 798.339 308.081 801.444 309.942Z" fill="#05515F"/>
<path d="M866.749 305.951L859.693 333.509C858.943 336.524 858.568 338.88 858.568 340.588C858.568 342.093 858.89 343.399 859.541 344.507C860.192 345.609 860.995 346.163 861.942 346.163C863.395 346.163 865.796 344.382 869.15 340.819L870.202 341.875L869.38 342.851C866.73 345.913 864.691 348.063 863.264 349.291C861.837 350.518 860.6 351.138 859.548 351.138C857.943 351.138 856.556 350.3 855.385 348.618C854.208 346.935 853.622 344.989 853.622 342.779C853.622 341.176 854.221 337.534 855.424 331.86L856.023 328.996C854.168 333.311 851.695 337.454 848.591 341.42C843.383 348.044 838.404 351.362 833.656 351.362C830.801 351.362 828.552 350.333 826.901 348.275C825.251 346.216 824.422 343.452 824.422 339.988C824.422 335.271 825.764 330.322 828.44 325.15C831.117 319.977 834.445 315.722 838.424 312.384C842.403 309.045 846.27 307.376 850.018 307.376C853.971 307.376 856.924 308.834 858.877 311.744L859.699 308.88L866.756 305.944L866.749 305.951ZM858.114 315.59C857.516 313.683 856.503 312.192 855.076 311.11C853.649 310.028 852.011 309.494 850.156 309.494C847.953 309.494 845.625 310.51 843.172 312.542C840.719 314.574 838.47 317.398 836.418 321.013C834.813 323.877 833.478 327.037 832.4 330.501C831.321 333.964 830.788 336.828 830.788 339.084C830.788 341.644 831.275 343.656 832.255 345.108C833.228 346.566 834.622 347.291 836.418 347.291C838.72 347.291 841.12 346.209 843.626 344.052C846.125 341.895 848.604 338.807 851.058 334.789C852.557 332.48 853.734 330.171 854.583 327.862C855.431 325.552 856.385 322.339 857.437 318.222L858.114 315.59Z" fill="#05515F"/>
<path d="M874.102 351.203L894.069 248.188L901.954 244.349L881.159 336.068C881.356 335.719 881.462 335.494 881.462 335.389L883.185 331.47C886.138 324.74 889.84 318.921 894.293 313.999C898.495 309.434 902.375 307.145 905.927 307.145C907.827 307.145 909.353 307.758 910.504 308.992C911.655 310.226 912.227 311.868 912.227 313.927C912.227 315.081 911.951 316.711 911.399 318.822L910.649 321.983L908.321 331.173L907.643 334.109C906.893 337.124 906.519 339.433 906.519 341.036C906.519 342.64 906.795 343.933 907.347 344.916C907.9 345.892 908.623 346.387 909.524 346.387C911.076 346.387 913.549 344.533 916.956 340.812L918.08 341.868L917.403 342.699C914.549 346.064 912.438 348.333 911.057 349.514C909.682 350.695 908.439 351.282 907.341 351.282C905.789 351.282 904.46 350.451 903.362 348.795C902.263 347.139 901.711 345.206 901.711 342.996C901.711 341.643 902.033 339.255 902.684 335.844L905.539 319.878C905.986 317.516 906.216 315.761 906.216 314.606C906.216 313.551 905.94 312.753 905.387 312.198C904.835 311.644 904.085 311.367 903.138 311.367C901.284 311.367 899.159 312.462 896.759 314.646C894.358 316.83 891.945 319.858 889.518 323.718C887.091 327.584 884.974 331.714 883.178 336.108C881.376 340.502 880.028 345.008 879.127 349.626L874.096 351.21L874.102 351.203Z" fill="#05515F"/>
<path d="M948.945 348.498L953.075 340.97C961.533 345.641 969.741 347.977 977.698 347.977C982.999 347.977 987.846 347.014 992.226 345.081C996.606 343.148 1000.06 340.515 1002.58 337.177C1005.11 333.838 1006.37 330.21 1006.37 326.297C1006.37 322.385 1005.22 318.994 1002.92 315.979C1000.62 312.964 996.462 309.48 990.457 305.508C984.604 301.589 981.039 299.181 979.763 298.277C978.488 297.373 976.824 296.094 974.772 294.438C971.122 291.224 969.293 287.431 969.293 283.063C969.293 275.179 974.397 267.599 984.61 260.321C987.465 258.263 990.727 256.402 994.403 254.746C998.079 253.09 1001.7 251.837 1005.25 250.979C1008.8 250.128 1012.13 249.699 1015.23 249.699C1019.78 249.699 1023.37 250.55 1025.96 252.259C1028.57 253.968 1029.87 256.35 1029.87 259.411C1029.87 263.178 1028.29 267.203 1025.14 271.498C1021.99 275.793 1017.68 279.745 1012.23 283.36L1006.23 279.969C1009.93 277.462 1013.06 274.948 1015.61 272.441C1018.16 269.934 1020.14 267.486 1021.54 265.098C1022.95 262.716 1023.65 260.539 1023.65 258.586C1023.65 257.234 1023.27 256.079 1022.52 255.122C1021.78 254.172 1020.7 253.44 1019.3 252.939C1017.89 252.437 1016.15 252.187 1014.04 252.187C1010.14 252.187 1005.95 252.952 1001.47 254.482C996.988 256.013 992.772 258.032 988.82 260.546C980.013 266.121 975.607 272.316 975.607 279.144C975.607 281.051 976.133 282.846 977.185 284.528C978.238 286.21 980.073 288.104 982.703 290.215C985.334 292.326 989.168 295.038 994.226 298.35C997.981 300.811 1000.82 302.816 1002.75 304.374C1004.68 305.931 1006.26 307.56 1007.52 309.269C1010.32 312.832 1011.72 316.823 1011.72 321.244C1011.72 324.661 1010.83 328.125 1009.06 331.635C1007.28 335.151 1004.76 338.437 1001.51 341.498C993.903 348.676 983.348 352.265 969.833 352.265C961.027 352.265 954.069 351.012 948.965 348.498H948.945Z" fill="#05515F"/>
<path d="M1021.83 335.996C1021.83 331.476 1023.05 326.97 1025.48 322.477C1027.9 317.984 1031.04 314.329 1034.89 311.519C1038.75 308.708 1042.67 307.303 1046.68 307.303C1050.88 307.303 1054.28 308.695 1056.85 311.479C1059.43 314.263 1060.72 317.865 1060.72 322.286C1060.72 327.109 1059.53 331.773 1057.16 336.293C1054.78 340.812 1051.65 344.513 1047.77 347.403C1043.89 350.293 1039.98 351.731 1036.03 351.731C1031.77 351.731 1028.34 350.286 1025.74 347.403C1023.14 344.513 1021.84 340.713 1021.84 335.996H1021.83ZM1053.96 319.429C1053.96 316.414 1053.22 313.933 1051.74 311.974C1050.26 310.014 1048.38 309.038 1046.08 309.038C1043.97 309.038 1041.96 309.717 1040.03 311.07C1038.1 312.422 1036.34 314.408 1034.74 317.021C1032.93 320.036 1031.45 323.546 1030.27 327.564C1029.09 331.582 1028.51 335.145 1028.51 338.259C1028.51 341.973 1029.23 344.836 1030.69 346.842C1032.14 348.848 1034.22 349.857 1036.91 349.857C1041.27 349.857 1045.1 346.822 1048.4 340.746C1050.1 337.632 1051.45 334.148 1052.45 330.276C1053.45 326.409 1053.95 322.794 1053.95 319.429H1053.96Z" fill="#05515F"/>
<path d="M1067.62 351.204L1075.58 309.487L1082.71 306.399L1076.25 334.037C1080.4 325.249 1084.53 318.572 1088.63 314.006C1092.74 309.441 1096.66 307.152 1100.42 307.152C1102.27 307.152 1103.77 307.765 1104.92 308.999C1106.07 310.233 1106.65 311.875 1106.65 313.934C1106.65 315.088 1106.37 316.718 1105.82 318.829L1105.07 321.99L1102.82 331.18L1102.07 334.116C1101.32 337.131 1100.94 339.44 1100.94 341.043C1100.94 342.647 1101.22 343.94 1101.77 344.923C1102.32 345.899 1103.05 346.394 1103.95 346.394C1105.5 346.394 1107.97 344.54 1111.38 340.819L1112.58 341.875L1111.83 342.706C1108.98 346.071 1106.88 348.34 1105.53 349.521C1104.17 350.702 1102.92 351.289 1101.77 351.289C1100.22 351.289 1098.91 350.498 1097.83 348.914C1096.75 347.331 1096.22 345.365 1096.22 343.003C1096.22 341.4 1096.52 339.011 1097.12 335.851L1100.05 319.885C1100.45 317.378 1100.65 315.616 1100.65 314.613C1100.65 313.558 1100.37 312.759 1099.82 312.205C1099.27 311.651 1098.52 311.374 1097.57 311.374C1094.12 311.374 1089.86 315.088 1084.81 322.517C1082.36 326.08 1080.33 329.61 1078.73 333.1C1077.12 336.59 1075.32 341.419 1073.32 347.595L1072.64 349.627L1067.61 351.21L1067.62 351.204Z" fill="#05515F"/>
<path d="M1158.68 305.95L1147.2 351.81C1146.05 356.732 1145.03 360.347 1144.16 362.657C1143.28 364.966 1142.22 367.07 1140.97 368.984C1138.62 372.599 1135.75 375.37 1132.37 377.303C1128.99 379.236 1125.36 380.2 1121.45 380.2C1117.9 380.2 1114.77 379.197 1112.07 377.184L1115.89 372.216C1119.15 375.331 1122.37 376.888 1125.57 376.888C1127.63 376.888 1129.7 376.234 1131.8 374.928C1133.91 373.622 1135.45 372.019 1136.46 370.112C1137.76 367.803 1139.11 363.607 1140.51 357.537L1146.29 332.684C1139.58 345.232 1132.78 351.513 1125.87 351.513C1123.07 351.513 1120.81 350.444 1119.08 348.313C1117.35 346.182 1116.48 343.458 1116.48 340.146C1116.48 335.428 1117.81 330.506 1120.46 325.387C1123.11 320.267 1126.46 316.012 1130.49 312.62C1134.51 309.229 1138.43 307.54 1142.23 307.54C1145.78 307.54 1148.74 308.873 1151.09 311.532L1151.77 308.893L1158.67 305.957L1158.68 305.95ZM1150.28 315.286C1148.32 311.519 1145.74 309.638 1142.54 309.638C1139.34 309.638 1135.89 311.499 1132.63 315.213C1129.98 318.327 1127.71 322.226 1125.84 326.924C1123.96 331.621 1123.02 335.824 1123.02 339.539C1123.02 342.052 1123.56 344.018 1124.63 345.45C1125.71 346.882 1127.22 347.594 1129.18 347.594C1131.13 347.594 1133.39 346.492 1135.82 344.282C1138.25 342.072 1140.66 338.965 1143.06 334.947C1145.81 330.381 1147.94 324.958 1149.44 318.684L1150.27 315.292L1150.28 315.286Z" fill="#05515F"/>
<path d="M1653.94 291.72H1202.95C1198.59 291.72 1195.06 295.264 1195.06 299.637V362.05C1195.06 366.423 1198.59 369.967 1202.95 369.967H1653.94C1658.3 369.967 1661.83 366.423 1661.83 362.05V299.637C1661.83 295.264 1658.3 291.72 1653.94 291.72Z" fill="#05515F"/>
<path d="M1237.59 326.113C1237.59 320.136 1237.59 316.164 1237.42 314.422C1237.32 312.898 1236.82 311.922 1235.53 311.651C1234.83 311.486 1234.12 311.486 1233.47 311.434C1232.77 311.434 1232.5 311.216 1232.5 310.893C1232.5 310.569 1232.66 310.352 1233.69 310.352C1236.02 310.352 1241.55 310.517 1242.47 310.517C1245.07 310.517 1248.1 310.352 1250.6 310.352C1257.97 310.352 1261.55 312.093 1263.71 314.106C1264.9 315.247 1266.64 317.642 1266.64 321.337C1266.64 329.709 1258.99 334.222 1251.52 334.222C1251.14 334.222 1250.21 334.169 1249.84 334.057C1249.52 333.951 1249.24 333.839 1249.24 333.516C1249.24 333.192 1249.46 332.975 1250.43 332.975C1254.93 332.975 1257.1 329.438 1257.1 324.55C1257.1 320.796 1256.4 317.807 1254.44 315.689C1253.04 314.165 1251.19 313.459 1249.29 313.459C1248.59 313.459 1248.16 313.512 1247.83 313.565C1247.4 313.67 1247.18 314 1247.18 314.924V335.693C1247.18 339.935 1247.18 344.883 1247.45 347.166C1247.56 348.743 1247.94 349.779 1249.56 350.102C1250.32 350.267 1251.3 350.32 1251.95 350.373C1252.77 350.373 1252.98 350.538 1252.98 350.973C1252.98 351.243 1252.71 351.461 1251.9 351.461C1248.16 351.461 1242.41 351.296 1241.93 351.296C1241.66 351.296 1235.75 351.461 1233.9 351.461C1233.15 351.461 1232.82 351.296 1232.82 350.92C1232.82 350.544 1233.25 350.379 1233.85 350.379C1234.39 350.326 1234.94 350.274 1235.48 350.161C1236.56 349.944 1237.05 349.185 1237.27 347.12C1237.48 344.837 1237.59 340.978 1237.59 335.7V326.133V326.113Z" fill="white"/>
<path d="M1287.88 331.061C1287.88 320.188 1295.14 309.586 1311.07 309.586C1324.84 309.586 1333.46 318.829 1333.46 329.867C1333.46 342.534 1324.89 352.213 1310.69 352.213C1294.71 352.213 1287.88 340.687 1287.88 331.068V331.061ZM1322.62 332.255C1322.62 323.23 1318.87 312.957 1309.29 312.957C1304.3 312.957 1298.72 315.728 1298.72 328.613C1298.72 338.886 1303 348.729 1312.32 348.729C1315.68 348.729 1322.62 347.258 1322.62 332.255Z" fill="white"/>
<path d="M1361.14 326.113C1361.14 318.123 1361.14 316.599 1361.04 314.857C1360.93 313.281 1360.66 311.816 1358.6 311.598C1358.16 311.545 1357.62 311.545 1356.59 311.433C1355.78 311.381 1355.56 311.11 1355.56 310.833C1355.56 310.51 1355.88 310.345 1356.81 310.345C1358.16 310.345 1363.15 310.51 1365.54 310.51C1367.32 310.51 1369.76 310.457 1374.32 310.404C1383.58 310.457 1390.84 311.651 1395.77 316.711C1398.54 319.482 1400.98 324.048 1400.98 330.52C1400.98 336.992 1398.1 342.482 1395.02 345.418C1392.36 348.136 1387.38 351.89 1376.49 351.89C1374.32 351.89 1372.47 351.837 1370.68 351.672C1368.57 351.454 1366.35 351.289 1365.32 351.289C1364.02 351.289 1362.71 351.289 1361.2 351.342C1359.68 351.395 1358.98 351.448 1357.46 351.448C1356.54 351.448 1356.37 351.177 1356.37 350.907C1356.37 350.524 1356.81 350.366 1357.41 350.366C1358.11 350.313 1358.49 350.26 1359.08 350.148C1360.17 349.983 1360.71 348.954 1360.87 346.829C1361.04 344.217 1361.14 340.357 1361.14 335.686V326.12V326.113ZM1370.74 332.203C1370.74 337.962 1370.79 341.716 1370.84 342.752C1370.95 344.982 1371.17 346.071 1371.76 346.664C1372.74 347.859 1374.96 348.624 1377.35 348.624C1381.14 348.624 1384.34 347.806 1387.21 344.817C1390.03 341.993 1390.74 337.151 1390.74 332.044C1390.74 326.938 1388.95 322.695 1386.67 319.595C1382.93 314.699 1377.79 313.67 1374.21 313.67C1373.02 313.67 1371.77 313.835 1371.28 314.105C1370.85 314.323 1370.8 314.594 1370.8 315.082C1370.85 316.929 1370.74 320.842 1370.74 325.249V332.209L1370.74 332.203Z" fill="white"/>
<path d="M1430.01 346.229C1424.7 341.663 1423.19 336.062 1423.19 330.243C1423.19 326.548 1424.44 319.805 1429.91 315.18C1434.57 311.209 1439.99 309.579 1447.85 309.579C1450.94 309.579 1453.43 309.902 1455.54 310.232C1457.98 310.615 1459.29 310.885 1460.91 310.938C1461.51 310.991 1461.51 311.321 1461.51 311.644C1461.51 312.08 1461.34 313.386 1461.24 315.233C1461.13 317.028 1461.19 320.234 1461.07 321.593C1461.02 322.411 1460.91 322.9 1460.42 322.9C1459.99 322.9 1459.82 322.517 1459.77 321.758C1459.72 320.564 1459.5 318.387 1457.71 316.427C1455.82 314.415 1452.03 313.003 1446.76 313.003C1443.57 313.003 1440.91 313.762 1438.8 315.616C1435.49 318.499 1434.03 323.553 1434.03 329.372C1434.03 340.575 1440.1 348.076 1449.2 348.076C1453.65 348.076 1456.41 347.693 1458.52 345.305C1459.28 344.487 1459.88 343.293 1460.31 341.663C1460.58 340.522 1460.75 340.139 1461.18 340.139C1461.56 340.139 1461.61 340.68 1461.61 341.116C1461.61 342.039 1460.96 346.77 1460.42 349.382C1460.32 350.2 1459.94 350.629 1459.02 350.959C1456.85 351.83 1453.16 352.213 1449.7 352.213C1442.65 352.213 1435.71 351.019 1430.03 346.235L1430.01 346.229Z" fill="white"/>
<path d="M1492.28 340.192C1492.01 340.192 1491.9 340.298 1491.79 340.575L1490.12 345.035C1489.58 346.447 1489.25 347.858 1489.25 348.512C1489.25 349.547 1489.74 350.036 1490.87 350.141C1491.47 350.247 1492.34 350.306 1492.77 350.359C1493.58 350.359 1493.74 350.629 1493.74 350.9C1493.74 351.335 1493.31 351.441 1492.6 351.441C1490.16 351.441 1488.32 351.276 1485.45 351.276C1484.85 351.276 1481.27 351.441 1478.56 351.441C1477.81 351.441 1477.48 351.223 1477.48 350.9C1477.48 350.464 1477.86 350.359 1478.51 350.359C1479.16 350.306 1479.7 350.253 1480.25 350.141C1482.14 349.759 1483.22 348.076 1484.36 345.464L1498.83 312.627C1499.86 310.292 1500.46 309.474 1501.05 309.474C1501.59 309.474 1502.09 310.232 1503.01 312.192C1504.41 315.233 1513.52 336.062 1517.21 344.322C1519.05 348.564 1520.24 349.871 1522.14 350.141C1522.74 350.306 1523.38 350.306 1523.87 350.359C1524.58 350.359 1524.91 350.577 1524.91 350.9C1524.91 351.283 1524.53 351.441 1523.5 351.441C1518.19 351.441 1512.01 351.335 1508.54 351.276C1507.68 351.276 1507.35 351.111 1507.35 350.788C1507.35 350.465 1507.62 350.247 1508.11 350.135C1508.71 350.029 1508.93 349.646 1508.76 349.158L1505.13 340.515C1505.08 340.298 1504.86 340.192 1504.7 340.192H1492.29H1492.28ZM1503.12 335.844C1503.44 335.844 1503.44 335.679 1503.39 335.574L1498.62 323.942C1498.46 323.559 1498.35 323.672 1498.24 323.942L1493.64 335.574C1493.58 335.739 1493.69 335.844 1493.85 335.844H1503.12Z" fill="white"/>
<path d="M1541.59 350.689C1540.67 350.306 1540.4 349.6 1540.4 348.512C1540.4 344.111 1540.57 342.04 1540.73 340.522C1540.84 339.546 1541.05 339.216 1541.38 339.216C1541.76 339.216 1541.82 339.704 1541.87 340.139C1541.92 340.68 1541.98 341.175 1542.14 341.822C1543.06 346.282 1547.12 348.835 1551.35 348.835C1556.5 348.835 1558.07 346.17 1558.07 343.834C1558.07 341.499 1557.64 339.645 1553.04 336.498L1549.67 334.162C1543.07 329.484 1541.22 325.684 1541.22 320.894C1541.22 314.64 1546.37 309.586 1555.03 309.586C1557.36 309.586 1558.99 309.692 1561.27 310.127C1562.14 310.292 1563.06 310.51 1563.93 310.78C1564.47 310.945 1564.63 311.103 1564.63 311.539C1564.52 313.281 1564.41 314.369 1564.41 319.205C1564.41 320.182 1564.25 320.564 1563.81 320.564C1563.55 320.564 1563.33 320.399 1563.22 319.529C1563.16 318.988 1563 317.628 1562.24 316.375C1561.21 314.633 1558.72 312.786 1554.82 312.786C1550.37 312.786 1548.75 315.286 1548.75 317.787C1548.75 319.634 1549.4 321.759 1553.08 324.259L1555.84 326.106C1563.43 331.16 1565.81 334.531 1565.81 340.027C1565.81 343.781 1564.14 347.476 1560.07 349.871C1556.93 351.771 1553.46 352.206 1550.64 352.206C1546.58 352.206 1543.7 351.665 1541.59 350.682V350.689Z" fill="white"/>
<path d="M1609.82 335.679C1609.82 339.922 1609.82 344.975 1610.09 347.258C1610.2 348.67 1610.57 349.811 1612.2 350.089C1612.9 350.194 1613.55 350.253 1614.53 350.359C1615.4 350.412 1615.61 350.577 1615.61 350.959C1615.61 351.283 1615.34 351.448 1614.37 351.448C1610.69 351.448 1605.43 351.283 1604.56 351.283C1603.64 351.283 1598.38 351.448 1596.59 351.448C1595.72 351.448 1595.34 351.342 1595.34 350.907C1595.34 350.524 1595.78 350.366 1596.43 350.366C1596.97 350.313 1597.57 350.26 1598.16 350.148C1599.36 349.93 1599.74 348.736 1599.9 347.159C1600.12 344.876 1600.23 340.964 1600.23 335.686V314.376C1598.12 314.376 1594.76 314.323 1592.05 314.481C1589.02 314.646 1587.82 315.352 1587.12 317.252C1586.85 317.853 1586.73 318.176 1586.63 318.499C1586.52 318.935 1586.36 319.37 1585.98 319.37C1585.49 319.37 1585.49 318.935 1585.54 318.281C1585.76 316.052 1586.36 313.116 1586.73 311.051C1586.84 310.232 1587 309.691 1587.33 309.691C1587.71 309.691 1587.93 309.856 1589.17 310.127C1590.15 310.345 1593.13 310.51 1595.19 310.51H1618.77C1620.45 310.51 1621.43 310.404 1622.18 310.292C1623.05 310.127 1623.48 309.969 1623.86 309.969C1624.35 309.969 1624.4 310.292 1624.4 311.651C1624.4 312.41 1624.08 317.47 1624.02 318.829C1623.97 319.588 1623.8 319.918 1623.48 319.918C1623.04 319.918 1622.94 319.594 1622.88 318.941C1622.83 318.341 1622.83 318.123 1622.77 317.853C1622.55 316.17 1621.74 314.864 1618.54 314.646C1616.75 314.481 1613.94 314.376 1609.81 314.376V335.686L1609.82 335.679Z" fill="white"/>
</g>
<defs>
<clipPath id="clip0_68_318">
<rect width="837" height="222.009" fill="white" transform="scale(2)"/>
</clipPath>
</defs>
</svg>
